<?xml version="1.0" encoding="utf-8"?>
<!-- Generator: Adobe Illustrator 24.0.2, SVG Export Plug-In . SVG Version: 6.00 Build 0)  -->
<svg version="1.1" id="Capa_1" xmlns="http://www.w3.org/2000/svg" xmlns:xlink="http://www.w3.org/1999/xlink" x="0px" y="0px"
	 viewBox="0 0 200 200" style="enable-background:new 0 0 200 200;" xml:space="preserve">
<style type="text/css">
	.st0{fill:#FFFFFF;}
</style>
<g>
	<path class="st0" d="M184.88,96.43c-10.33-0.01-20.66-0.05-30.99,0.04c-1.69,0.01-2.07-0.39-2.07-2.07
		c0.06-28.75,0.04-57.49,0.04-86.24c0-3.15-0.98-4.14-4.12-4.14c-34.2,0-68.39,0.01-102.59-0.03c-1.67,0-2.91,0.52-4.07,1.7
		C29.36,17.48,17.61,29.23,5.83,40.95C4.55,42.22,4,43.55,4,45.36c0.05,24.19,0.03,48.38,0.03,72.57s0,48.38,0,72.57
		c0,3.65,0.85,4.5,4.54,4.5c30.16,0,60.31,0,90.47,0c16.3,0,32.59,0,48.89,0c2.89,0,3.93-1.05,3.94-3.94
		c0.01-2.25,0.09-4.5-0.03-6.74c-0.07-1.35,0.3-1.69,1.67-1.68c10.46,0.06,20.92,0.04,31.37,0.03c6.28,0,10.11-3.79,10.11-10.01
		c0.01-22.07,0.01-44.14,0-66.22C194.98,100.21,191.17,96.44,184.88,96.43z M40.99,14.98c0,1.93,0,3.88,0,5.84
		c0,6.21-0.02,12.43,0.02,18.64c0.01,1.04-0.06,1.57-1.38,1.56c-8.2-0.07-16.39-0.04-24.64-0.04C23.68,32.29,32.3,23.67,40.99,14.98
		z M145.75,184.6c-0.12,4.23-0.04,4.24-4.28,4.24c-43.05,0-86.11-0.01-129.16,0.04c-1.74,0-2.17-0.41-2.16-2.16
		c0.06-22.91,0.04-45.82,0.04-68.72c0-22.97,0.02-45.94-0.04-68.92c0-1.59,0.35-1.99,1.96-1.97c10.27,0.08,20.53,0.04,30.8,0.04
		c3.28,0,4.24-0.95,4.24-4.22c0-10.33,0.03-20.66-0.03-30.99c-0.01-1.41,0.3-1.79,1.76-1.78c31.7,0.05,63.39,0.05,95.09,0
		c1.41,0,1.79,0.29,1.78,1.76c-0.05,27.59-0.05,55.18,0,82.78c0,1.41-0.3,1.79-1.76,1.78c-20.6-0.06-41.19-0.04-61.79-0.04
		c-6.77,0-10.41,3.67-10.41,10.48c0,21.82,0,43.63,0,65.45c0,6.64,3.7,10.31,10.39,10.31c20.53,0,41.06,0.02,61.6-0.04
		C145.37,182.63,145.8,182.99,145.75,184.6z M188.83,172.39c0,3.14-0.99,4.13-4.13,4.13c-34.18,0-68.36,0-102.54,0
		c-3.25,0-4.2-0.96-4.2-4.25c0-12.38,0.03-24.76-0.04-37.13c-0.01-1.43,0.32-1.78,1.77-1.78c17.96,0.06,35.91,0.04,53.87,0.04
		c17.83,0,35.65,0.02,53.48-0.04c1.56-0.01,1.84,0.46,1.83,1.9C188.8,147.63,188.83,160.01,188.83,172.39z M188.87,116.84
		c-0.15,2.88-0.13,5.78,0,8.66c0.07,1.45-0.34,1.77-1.78,1.77c-25.79-0.05-51.58-0.04-77.38-0.04c-10.01,0-20.02-0.03-30.03,0.04
		c-1.44,0.01-1.84-0.32-1.77-1.77c0.13-2.95,0.13-5.91,0-8.85c-0.06-1.45,0.34-1.77,1.78-1.77c17.96,0.05,35.93,0.04,53.89,0.04
		c17.77,0,35.54,0.02,53.32-0.04C188.5,114.87,188.95,115.23,188.87,116.84z M188.85,108.02c-0.09,0.58-0.28,0.77-0.82,0.74
		c-0.45-0.02-0.9,0-1.35,0c-17.76,0-35.52,0-53.28,0c-17.82,0-35.65-0.02-53.47,0.03c-1.51,0-2.1-0.21-2.02-1.91
		c0.16-3.36,0.98-4.28,4.41-4.28c33.98,0,67.96,0,101.95,0C188.08,102.59,189.46,104.25,188.85,108.02z"/>
	<path class="st0" d="M102.55,90.27c20.35,0.02,36.97-16.54,37-36.87c0.04-20.36-16.49-36.99-36.82-37.05
		c-20.45-0.06-37.1,16.54-37.1,36.97C65.63,73.66,82.21,90.25,102.55,90.27z M102.67,22.51c16.97,0.03,30.76,13.91,30.71,30.93
		c-0.05,16.96-13.97,30.74-30.98,30.67c-16.88-0.07-30.63-13.92-30.61-30.84C71.81,36.28,85.66,22.48,102.67,22.51z"/>
	<path class="st0" d="M30.41,77.99c10.2-0.07,20.4-0.04,30.6-0.04c4.68,0,4.63,0,4.65-4.62c0.01-1.26-0.33-1.58-1.58-1.57
		c-5.64,0.07-11.29,0.03-16.94,0.03c-4.68,0-9.37,0-14.05,0c-4.45,0-4.38,0-4.47,4.43C28.6,77.67,28.98,78,30.41,77.99z"/>
	<path class="st0" d="M18.06,90.31c10.26-0.08,20.53-0.04,30.79-0.04c4.48,0,4.42,0,4.5-4.4c0.02-1.38-0.24-1.83-1.74-1.81
		c-5.58,0.11-11.16,0.04-16.74,0.04c-4.68,0-9.37,0-14.05,0c-4.48,0-4.42,0-4.5,4.4C16.29,89.89,16.56,90.32,18.06,90.31z"/>
	<path class="st0" d="M63.85,164.17c-10.2,0.06-20.4,0.03-30.6,0.03c-4.65,0-4.59,0-4.62,4.66c-0.01,1.34,0.45,1.54,1.62,1.53
		c5.58-0.06,11.16-0.02,16.74-0.02c4.75,0,9.49,0,14.24,0c4.42,0,4.33,0,4.44-4.47C65.71,164.36,65.2,164.16,63.85,164.17z"/>
	<path class="st0" d="M51.76,176.49c-5.64,0.07-11.29,0.03-16.94,0.03c-4.68,0-9.37,0-14.05,0c-4.45,0-4.38,0-4.47,4.43
		c-0.03,1.45,0.35,1.78,1.78,1.77c10.2-0.07,20.4-0.04,30.6-0.04c4.68,0,4.63,0,4.66-4.62C53.35,176.79,53.01,176.47,51.76,176.49z"
		/>
	<path class="st0" d="M19.5,77.95c3.01,0,3.01,0,3.01-2.95c0-3.21,0-3.21-3.15-3.21c-3.01,0-3.01,0-3.01,2.95
		C16.35,77.95,16.35,77.95,19.5,77.95z"/>
	<path class="st0" d="M59.47,87.32c0,2.95,0,2.95,3.01,2.95c3.15,0,3.15,0,3.15-3.21c0-2.95,0-2.95-3.01-2.95
		C59.47,84.11,59.47,84.11,59.47,87.32z"/>
	<path class="st0" d="M16.35,167.5c0,2.86,0,2.86,2.92,2.86c3.24,0,3.24,0,3.24-3.3c0-2.86,0-2.86-2.92-2.86
		C16.35,164.2,16.35,164.2,16.35,167.5z"/>
	<path class="st0" d="M62.8,176.52c-3.33,0-3.33,0-3.33,3.41c0,2.75,0,2.75,2.83,2.75c3.33,0,3.33,0,3.33-3.22
		C65.63,176.52,65.63,176.52,62.8,176.52z"/>
	<path class="st0" d="M167.66,146.08c-1.27,0.28-2.42,0.35-3.72,0.04c-5.04-1.19-9.29,0.33-12.48,4.35
		c-3.15,3.97-3.61,8.47-1.37,12.99c2.28,4.58,6.2,7.07,11.32,6.8c2.97-0.16,5.9-0.78,8.37,0.15c5.5-0.25,9.38-2.44,11.59-6.99
		c2.21-4.54,1.74-9.02-1.41-12.99C176.83,146.47,172.64,144.99,167.66,146.08z M154.96,157.7c0.14-2.6,1.78-4.63,4.51-5.4
		c-0.84,1.88-1.44,3.71-1.45,5.69c0,2,0.58,3.84,1.5,5.9C156.37,162.71,154.81,160.49,154.96,157.7z M165.66,161.58
		c-1.02,0.07-1.46-2.13-1.45-3.56c0.01-1.42,0.36-3.54,1.48-3.54c1.29,0,1.36,2.11,1.62,3.42
		C167.1,159.38,167.08,161.49,165.66,161.58z M171.93,163.82c1.95-3.91,1.95-7.63,0.1-11.35c2.27,0.24,4.12,2.31,4.45,4.88
		C176.82,160.03,174.87,163.31,171.93,163.82z"/>
	<path class="st0" d="M117.72,151.88c-2.79,0.52-2.79,0.52-2.82,3.28c-0.09,6.92-5.96,12.41-12.95,12.1
		c-6.86-0.3-12.22-6.46-11.64-13.38c0.57-6.79,6.83-11.9,13.61-11.22c1.27,0.13,2.65,1.44,3.71,0.44c0.9-0.85,1.16-2.37,1.71-3.6
		c0.05-0.12,0.09-0.24,0.16-0.35c0.62-0.91,0.24-1.27-0.7-1.59c-3.1-1.05-6.22-1.34-9.45-0.77c-9.46,1.68-16.28,10.67-15.16,20.06
		c1.19,9.94,9.59,17.06,19.52,16.55c9.59-0.49,17.33-8.69,17.36-18.39C121.07,151.26,121.07,151.26,117.72,151.88z"/>
	<path class="st0" d="M101.53,153.97c-2.73-4.04-2.7-4.02-6.74-1.04c-0.78,0.58-0.77,0.94-0.28,1.65c1.67,2.42,3.27,4.89,4.91,7.33
		c2.04,3.04,4.16,3.08,6.28,0.12c4.1-5.72,8.18-11.46,12.27-17.19c2.52-3.53,2.47-3.47-0.99-6.07c-1.25-0.94-1.79-0.7-2.61,0.48
		c-3.8,5.45-7.7,10.83-11.56,16.22C102.09,155.14,101.88,154.49,101.53,153.97z"/>
	<path class="st0" d="M104.11,68.5c-2.82,0.78-6.39-0.64-7.03-3.5c-0.61-2.73-2.11-2.59-4.03-2.46c-0.45,0.03-0.91,0.07-1.34-0.01
		c-1.45-0.25-1.56,0.52-1.36,1.64c0.84,4.73,3.46,8.06,7.93,9.82c0.95,0.37,1.36,0.76,1.25,1.76c-0.07,0.63-0.01,1.28-0.01,1.92
		c0,0.71,0.07,1.42-0.02,2.11c-0.13,1.05,0.33,1.24,1.29,1.26c4.88,0.1,4.88,0.13,4.89-4.76c0-0.06,0.01-0.13,0-0.19
		c-0.21-1.19,0.27-1.73,1.45-2.19c6.56-2.56,9.61-10,6.69-16.33c-2.22-4.83-6.14-7.17-11.43-7.37c-3.14-0.12-5.64-2.52-5.93-5.52
		c-0.3-3.04,1.68-5.83,4.7-6.62c2.8-0.73,6.29,0.78,7.01,3.62c0.59,2.33,1.75,2.64,3.68,2.38c0.57-0.08,1.17-0.09,1.73,0
		c1.38,0.23,1.44-0.52,1.27-1.55c-0.55-3.37-2.15-6.08-4.8-8.27c-1.34-1.1-3.64-1.04-4.23-2.59c-0.58-1.51-0.14-3.42-0.13-5.15
		c0.01-0.58-0.07-0.87-0.79-0.97c-4.93-0.69-5.37-0.35-5.37,4.48c0,0.13-0.02,0.26,0,0.38c0.23,1.28-0.3,1.83-1.54,2.33
		c-4.45,1.82-7.1,5.24-7.61,10.02c-0.51,4.77,1.36,8.65,5.29,11.45c2.15,1.53,4.6,2.11,7.23,2.21c3.11,0.11,5.6,2.58,5.85,5.6
		C108.98,64.99,107.05,67.7,104.11,68.5z"/>
</g>
</svg>
