<?xml version="1.0" encoding="utf-8"?>
<!-- Generator: Adobe Illustrator 24.0.2, SVG Export Plug-In . SVG Version: 6.00 Build 0)  -->
<svg version="1.1" id="Capa_1" xmlns="http://www.w3.org/2000/svg" xmlns:xlink="http://www.w3.org/1999/xlink" x="0px" y="0px"
	 viewBox="0 0 200 200" style="enable-background:new 0 0 200 200;" xml:space="preserve">
<style type="text/css">
	.st0{fill:#FFFFFF;}
	.st1{fill:#4B4B4B;}
</style>
<g>
	<path class="st0" d="M-153.12,47.43c-10.33-0.01-20.66-0.05-30.99,0.04c-1.69,0.01-2.07-0.39-2.07-2.07
		c0.06-28.75,0.04-57.49,0.04-86.24c0-3.15-0.98-4.14-4.12-4.14c-34.2,0-68.39,0.01-102.59-0.03c-1.67,0-2.91,0.52-4.07,1.7
		c-11.72,11.78-23.47,23.53-35.25,35.25c-1.28,1.27-1.83,2.6-1.83,4.41c0.05,24.19,0.03,48.38,0.03,72.57s0,48.38,0,72.57
		c0,3.65,0.85,4.5,4.54,4.5c30.16,0,60.31,0,90.47,0c16.3,0,32.59,0,48.89,0c2.89,0,3.93-1.05,3.94-3.94
		c0.01-2.25,0.09-4.5-0.03-6.74c-0.07-1.35,0.3-1.69,1.67-1.68c10.46,0.06,20.92,0.04,31.37,0.03c6.28,0,10.11-3.79,10.11-10.01
		c0.01-22.07,0.01-44.14,0-66.22C-143.02,51.21-146.83,47.44-153.12,47.43z M-297.01-34.02c0,1.93,0,3.88,0,5.84
		c0,6.21-0.02,12.43,0.02,18.64c0.01,1.04-0.06,1.57-1.38,1.56c-8.2-0.07-16.39-0.04-24.64-0.04
		C-314.32-16.71-305.7-25.33-297.01-34.02z M-192.25,135.6c-0.12,4.23-0.04,4.24-4.28,4.24c-43.05,0-86.11-0.01-129.16,0.04
		c-1.74,0-2.17-0.41-2.16-2.16c0.06-22.91,0.04-45.82,0.04-68.72c0-22.97,0.02-45.94-0.04-68.92c0-1.59,0.35-1.99,1.96-1.97
		c10.27,0.08,20.53,0.04,30.8,0.04c3.28,0,4.24-0.95,4.24-4.22c0-10.33,0.03-20.66-0.03-30.99c-0.01-1.41,0.3-1.79,1.76-1.78
		c31.7,0.05,63.39,0.05,95.09,0c1.41,0,1.79,0.29,1.78,1.76c-0.05,27.59-0.05,55.18,0,82.78c0,1.41-0.3,1.79-1.76,1.78
		c-20.6-0.06-41.19-0.04-61.79-0.04c-6.77,0-10.41,3.67-10.41,10.48c0,21.82,0,43.63,0,65.45c0,6.64,3.7,10.31,10.39,10.31
		c20.53,0,41.06,0.02,61.6-0.04C-192.63,133.63-192.2,133.99-192.25,135.6z M-149.17,123.39c0,3.14-0.99,4.13-4.13,4.13
		c-34.18,0-68.36,0-102.54,0c-3.25,0-4.2-0.96-4.2-4.25c0-12.38,0.03-24.76-0.04-37.13c-0.01-1.43,0.32-1.78,1.77-1.78
		c17.96,0.06,35.91,0.04,53.87,0.04c17.83,0,35.65,0.02,53.48-0.04c1.56-0.01,1.84,0.46,1.83,1.9
		C-149.2,98.63-149.17,111.01-149.17,123.39z M-149.13,67.84c-0.15,2.88-0.13,5.78,0,8.66c0.07,1.45-0.34,1.77-1.78,1.77
		c-25.79-0.05-51.58-0.04-77.38-0.04c-10.01,0-20.02-0.03-30.03,0.04c-1.44,0.01-1.84-0.32-1.77-1.77c0.13-2.95,0.13-5.91,0-8.85
		c-0.06-1.45,0.34-1.77,1.78-1.77c17.96,0.05,35.93,0.04,53.89,0.04c17.77,0,35.54,0.02,53.32-0.04
		C-149.5,65.87-149.05,66.23-149.13,67.84z M-149.15,59.02c-0.09,0.58-0.28,0.77-0.82,0.74c-0.45-0.02-0.9,0-1.35,0
		c-17.76,0-35.52,0-53.28,0c-17.82,0-35.65-0.02-53.47,0.03c-1.51,0-2.1-0.21-2.02-1.91c0.16-3.36,0.98-4.28,4.41-4.28
		c33.98,0,67.96,0,101.95,0C-149.92,53.59-148.54,55.25-149.15,59.02z"/>
	<path class="st0" d="M-235.45,41.27c20.35,0.02,36.97-16.54,37-36.87c0.04-20.36-16.49-36.99-36.82-37.05
		c-20.45-0.06-37.1,16.54-37.1,36.97C-272.37,24.66-255.79,41.25-235.45,41.27z M-235.33-26.49c16.97,0.03,30.76,13.91,30.71,30.93
		c-0.05,16.96-13.97,30.74-30.98,30.67c-16.88-0.07-30.63-13.92-30.61-30.84C-266.19-12.72-252.34-26.52-235.33-26.49z"/>
	<path class="st0" d="M-307.59,28.99c10.2-0.07,20.4-0.04,30.6-0.04c4.68,0,4.63,0,4.66-4.62c0.01-1.26-0.33-1.58-1.58-1.57
		c-5.64,0.07-11.29,0.03-16.94,0.03c-4.68,0-9.37,0-14.05,0c-4.45,0-4.38,0-4.47,4.43C-309.4,28.67-309.02,29-307.59,28.99z"/>
	<path class="st0" d="M-319.94,41.31c10.26-0.08,20.53-0.04,30.79-0.04c4.48,0,4.42,0,4.5-4.4c0.02-1.38-0.24-1.83-1.74-1.81
		c-5.58,0.11-11.16,0.04-16.74,0.04c-4.68,0-9.37,0-14.05,0c-4.48,0-4.42,0-4.5,4.4C-321.71,40.89-321.44,41.32-319.94,41.31z"/>
	<path class="st0" d="M-274.15,115.17c-10.2,0.06-20.4,0.03-30.6,0.03c-4.65,0-4.59,0-4.62,4.66c-0.01,1.34,0.45,1.54,1.62,1.53
		c5.58-0.06,11.16-0.02,16.74-0.02c4.75,0,9.49,0,14.24,0c4.42,0,4.33,0,4.44-4.47C-272.29,115.36-272.8,115.16-274.15,115.17z"/>
	<path class="st0" d="M-286.24,127.49c-5.64,0.07-11.29,0.03-16.94,0.03c-4.68,0-9.37,0-14.05,0c-4.45,0-4.38,0-4.47,4.43
		c-0.03,1.45,0.35,1.78,1.78,1.77c10.2-0.07,20.4-0.04,30.6-0.04c4.68,0,4.63,0,4.65-4.62
		C-284.65,127.79-284.99,127.47-286.24,127.49z"/>
	<path class="st0" d="M-318.5,28.95c3.01,0,3.01,0,3.01-2.95c0-3.21,0-3.21-3.15-3.21c-3.01,0-3.01,0-3.01,2.95
		C-321.65,28.95-321.65,28.95-318.5,28.95z"/>
	<path class="st0" d="M-278.53,38.32c0,2.95,0,2.95,3.01,2.95c3.15,0,3.15,0,3.15-3.21c0-2.95,0-2.95-3.01-2.95
		C-278.53,35.11-278.53,35.11-278.53,38.32z"/>
	<path class="st0" d="M-321.65,118.5c0,2.86,0,2.86,2.92,2.86c3.24,0,3.24,0,3.24-3.3c0-2.86,0-2.86-2.92-2.86
		C-321.65,115.2-321.65,115.2-321.65,118.5z"/>
	<path class="st0" d="M-275.2,127.52c-3.33,0-3.33,0-3.33,3.41c0,2.75,0,2.75,2.83,2.75c3.33,0,3.33,0,3.33-3.22
		C-272.37,127.52-272.37,127.52-275.2,127.52z"/>
	<path class="st0" d="M-170.34,97.08c-1.27,0.28-2.42,0.35-3.72,0.04c-5.04-1.19-9.29,0.33-12.48,4.35
		c-3.15,3.97-3.61,8.47-1.37,12.99c2.28,4.58,6.2,7.07,11.32,6.8c2.97-0.16,5.9-0.78,8.37,0.15c5.5-0.25,9.38-2.44,11.59-6.99
		c2.21-4.54,1.74-9.02-1.41-12.99C-161.17,97.47-165.36,95.99-170.34,97.08z M-183.04,108.7c0.14-2.6,1.78-4.63,4.51-5.4
		c-0.84,1.88-1.44,3.71-1.45,5.69c0,2,0.58,3.84,1.5,5.9C-181.63,113.71-183.19,111.49-183.04,108.7z M-172.34,112.58
		c-1.02,0.07-1.46-2.13-1.45-3.56c0.01-1.42,0.36-3.54,1.48-3.54c1.29,0,1.36,2.11,1.62,3.42
		C-170.9,110.38-170.92,112.49-172.34,112.58z M-166.07,114.82c1.95-3.91,1.95-7.63,0.1-11.35c2.27,0.24,4.12,2.31,4.45,4.88
		C-161.18,111.03-163.13,114.31-166.07,114.82z"/>
	<path class="st0" d="M-220.28,102.88c-2.79,0.52-2.79,0.52-2.82,3.28c-0.09,6.92-5.96,12.41-12.95,12.1
		c-6.86-0.3-12.22-6.46-11.64-13.38c0.57-6.79,6.83-11.9,13.61-11.22c1.27,0.13,2.65,1.44,3.71,0.44c0.9-0.85,1.16-2.37,1.71-3.6
		c0.05-0.12,0.09-0.24,0.16-0.35c0.62-0.91,0.24-1.27-0.7-1.59c-3.1-1.05-6.22-1.34-9.45-0.77c-9.46,1.68-16.28,10.67-15.16,20.06
		c1.19,9.94,9.59,17.06,19.52,16.55c9.59-0.49,17.33-8.69,17.36-18.39C-216.93,102.26-216.93,102.26-220.28,102.88z"/>
	<path class="st0" d="M-236.47,104.97c-2.73-4.04-2.7-4.02-6.74-1.04c-0.78,0.58-0.77,0.94-0.28,1.65c1.67,2.42,3.27,4.89,4.91,7.33
		c2.04,3.04,4.16,3.08,6.28,0.12c4.1-5.72,8.18-11.46,12.27-17.19c2.52-3.53,2.47-3.47-0.99-6.07c-1.25-0.94-1.79-0.7-2.61,0.48
		c-3.8,5.45-7.7,10.83-11.56,16.22C-235.91,106.14-236.12,105.49-236.47,104.97z"/>
	<path class="st0" d="M-233.89,19.5c-2.82,0.78-6.39-0.64-7.03-3.5c-0.61-2.73-2.11-2.59-4.03-2.46c-0.45,0.03-0.91,0.07-1.34-0.01
		c-1.45-0.25-1.56,0.52-1.36,1.64c0.84,4.73,3.46,8.06,7.93,9.82c0.95,0.37,1.36,0.76,1.25,1.76c-0.07,0.63-0.01,1.28-0.01,1.92
		c0,0.71,0.07,1.42-0.02,2.11c-0.13,1.05,0.33,1.24,1.29,1.26c4.88,0.1,4.88,0.13,4.89-4.76c0-0.06,0.01-0.13,0-0.19
		c-0.21-1.19,0.27-1.73,1.45-2.19c6.56-2.56,9.61-10,6.69-16.33c-2.22-4.83-6.14-7.17-11.43-7.37c-3.14-0.12-5.64-2.52-5.93-5.52
		c-0.3-3.04,1.68-5.83,4.7-6.62c2.8-0.73,6.29,0.78,7.01,3.62c0.59,2.33,1.75,2.64,3.68,2.38c0.57-0.08,1.17-0.09,1.73,0
		c1.38,0.23,1.44-0.52,1.27-1.55c-0.55-3.37-2.15-6.08-4.8-8.27c-1.34-1.1-3.64-1.04-4.23-2.59c-0.58-1.51-0.14-3.42-0.13-5.15
		c0.01-0.58-0.07-0.87-0.79-0.97c-4.93-0.69-5.37-0.35-5.37,4.48c0,0.13-0.02,0.26,0,0.38c0.23,1.28-0.3,1.83-1.54,2.33
		c-4.45,1.82-7.1,5.24-7.61,10.02c-0.51,4.77,1.36,8.65,5.29,11.45c2.15,1.53,4.6,2.11,7.23,2.21c3.11,0.11,5.6,2.58,5.85,5.6
		C-229.02,15.99-230.95,18.7-233.89,19.5z"/>
</g>
<g>
	<path class="st0" d="M322.45-89.92c0.78,0,1.56,0,2.34,0C324.01-90.01,323.22-90.01,322.45-89.92z"/>
	<path class="st0" d="M469.33,49.91c2.78-20.08-3.17-37.38-17.33-51.85c-0.85-0.86-1.03-1.7-1.03-2.79
		c0.02-19.52,0.02-39.03,0.01-58.55c-0.01-8.3-4.96-14.63-12.72-16.36c-1.53-0.34-3.09-0.31-4.64-0.31
		c-5.35-0.01-10.69-0.02-16.04,0.01c-1.03,0.01-1.57-0.06-1.78-1.38c-0.81-4.99-4.74-8.25-9.55-8.2c-4.79,0.05-8.58,3.43-9.29,8.47
		c-0.18,1.29-0.88,1.09-1.66,1.09c-6.28,0-12.56,0-18.84,0c-13.87,0-27.73-0.01-41.6,0.02c-1.15,0-1.65-0.13-1.86-1.5
		c-0.72-4.79-4.73-8.11-9.46-8.09c-4.71,0.02-8.7,3.44-9.36,8.21c-0.16,1.15-0.5,1.4-1.58,1.39c-5.53-0.05-11.07-0.03-16.6-0.02
		c-8.74,0.02-14.28,4.27-16.65,12.77c-0.04,0.15-0.21,0.27-0.32,0.4c0,44.26,0,88.52,0,132.78c0.12,0.19,0.3,0.37,0.36,0.58
		c2.26,8.15,7.98,12.53,16.46,12.54c20.93,0.01,41.87,0.06,62.8-0.06c2.83-0.02,4.69,0.77,6.63,2.91
		c9.91,10.86,22.33,17.06,36.87,19.06c0.39,0.05,0.9-0.16,1.12,0.4c3.98,0,7.96,0,11.94,0c2.51-0.48,5.04-0.9,7.54-1.45
		C447.13,94.64,465.93,74.55,469.33,49.91z M403.24-79.84c0.04-1.94,1.3-3.26,3.05-3.31c1.79-0.06,3.25,1.32,3.27,3.31
		c0.06,4.15,0.06,8.31,0,12.46c-0.03,2.03-1.42,3.32-3.27,3.27c-1.81-0.05-3-1.28-3.05-3.27c-0.05-2.11-0.01-4.22-0.01-6.32
		C403.23-75.75,403.19-77.8,403.24-79.84z M396.83-70.47c0.15,8.45,3.2,12.58,9.24,12.73c6.28,0.16,9.29-3.65,9.97-12.59
		c4.06,3.2,3.99,10.13-0.15,14.73c-4.97,5.53-13.62,5.68-18.73,0.33C392.77-59.87,392.54-66.83,396.83-70.47z M320.44-79.68
		c0.02-2.05,1.29-3.43,3.09-3.48c1.86-0.05,3.21,1.39,3.25,3.52c0.04,2.05,0.01,4.09,0.01,6.14c0,1.98,0.03,3.97-0.01,5.95
		c-0.04,2.09-1.25,3.4-3.1,3.44c-1.95,0.04-3.22-1.28-3.23-3.48C320.4-71.62,320.4-75.65,320.44-79.68z M314.11-70.53
		c-0.29,4.02,0,7.74,3.22,10.48c1.92,1.64,4.14,2.41,6.68,2.31c5.96-0.22,8.83-4.13,9.19-12.8c4.39,4.34,3.98,11.42-0.74,15.88
		c-5.09,4.81-13.69,4.47-18.44-0.72C309.84-59.96,309.94-66.92,314.11-70.53z M285.38-63.4c0.01-6.18,3.94-10.14,10.11-10.17
		c3.98-0.02,7.96,0.01,11.94,0.03c0.09,0,0.18,0.11,0.27,0.18c-4.96,10.33-3.55,18.73,4.12,24.56c7.19,5.46,17.75,5.12,24.47-0.75
		c5.47-4.78,9.44-14.07,3.07-23.86c17.11,0,34.12,0,51.15,0c-4.91,10.16-3.56,18.39,3.96,24.3c7.03,5.52,16.97,5.53,23.8,0.01
		c7.62-6.15,8.95-14.3,3.94-24.33c4.91,0,9.82-0.31,14.66,0.09c4.42,0.37,7.67,4.62,7.72,9.37c0.08,8.02,0,16.04,0.05,24.06
		c0.01,1.1-0.37,1.46-1.39,1.34c-0.31-0.04-0.62-0.01-0.93-0.01c-51.55,0-103.1-0.01-154.65,0.04c-1.83,0-2.38-0.35-2.34-2.29
		C285.46-48.35,285.37-55.88,285.38-63.4z M356.14,72.76c-20.02,0-40.04-0.13-60.05,0.07c-6.49,0.06-10.8-4.63-10.77-10.78
		c0.14-30.76,0.08-61.52,0.03-92.28c0-1.61,0.34-2.03,2-2.03c51.72,0.05,103.45,0.05,155.17,0c1.67,0,2.17,0.37,2.15,2.11
		c-0.11,7.14-0.05,14.28-0.05,21.76c-18.01-11.97-37.04-14.27-57.37-6.93c0-1.5,0.03-2.91-0.01-4.31c-0.1-3.5-2.63-6.13-6.14-6.19
		c-4.41-0.08-8.83-0.09-13.24,0.01c-3.4,0.07-5.94,2.71-6.02,6.11c-0.06,2.79-0.02,5.59-0.02,8.39c0,4.96,1.7,7,6.41,7.79
		c-21.5,23-24.95,48.32-10.42,76.27C357.33,72.76,356.74,72.76,356.14,72.76z M368.17-18.34c-0.02-0.88,0.22-1.19,1.13-1.15
		c1.8,0.07,3.6,0.02,5.4,0.02c1.49,0,2.99,0.12,4.46-0.03c1.56-0.16,1.92,0.48,1.75,1.85c-0.08,0.67,0.05,1.37-0.03,2.04
		c-0.14,1.19,0.63,2.74-0.43,3.51c-1.54,1.12-3.11,2.41-5.35,2.16c-1.9-0.21-3.84-0.08-5.76-0.03c-0.86,0.03-1.2-0.17-1.18-1.12
		C368.23-13.5,368.22-15.92,368.17-18.34z M409.38,95.08c-29.83-0.11-53.95-24.34-53.92-54.15c0.03-29.95,24.24-54.1,54.16-54.04
		c29.94,0.06,54.15,24.32,54.07,54.18C463.62,70.91,439.19,95.19,409.38,95.08z"/>
	<path class="st0" d="M310.92,37.79c-4.28-0.12-8.57-0.12-12.86,0c-3.56,0.09-6.17,2.65-6.29,6.09c-0.12,3.35-0.11,6.71,0,10.06
		c0.12,3.46,2.82,6.02,6.28,6.1c2.11,0.05,4.22,0.01,6.34,0.01c2.05,0,4.1,0.02,6.15,0c3.95-0.04,6.56-2.54,6.65-6.46
		c0.07-3.1,0.07-6.21,0-9.31C317.11,40.52,314.65,37.9,310.92,37.79z M309.78,53.71c-1.8-0.05-3.59-0.02-5.39-0.02
		c-1.67,0-3.35-0.04-5.02,0.02c-0.89,0.03-1.34-0.12-1.3-1.19c0.08-2.41,0.06-4.83,0.01-7.24c-0.02-0.89,0.28-1.18,1.17-1.17
		c3.47,0.04,6.94,0.04,10.41,0c0.87-0.01,1.21,0.23,1.19,1.15c-0.05,2.48-0.05,4.95,0,7.43C310.87,53.52,310.57,53.73,309.78,53.71z
		"/>
	<path class="st0" d="M310.91,5.97c-2.11-0.05-4.22-0.01-6.34-0.01c-2.11,0-4.22-0.03-6.34,0.01c-3.75,0.06-6.42,2.71-6.49,6.49
		c-0.05,3.1-0.06,6.21,0,9.31c0.07,3.68,2.63,6.37,6.32,6.47c4.28,0.11,8.57,0.11,12.86,0c3.64-0.1,6.16-2.68,6.25-6.31
		c0.08-3.29,0.09-6.58-0.02-9.87C317.04,8.55,314.42,6.06,310.91,5.97z M309.65,21.92c-3.47-0.04-6.94-0.04-10.41,0
		c-0.9,0.01-1.18-0.3-1.16-1.18c0.05-2.42,0.07-4.83-0.01-7.25c-0.03-1.05,0.39-1.23,1.3-1.2c1.73,0.06,3.47,0.02,5.21,0.02
		c1.74,0,3.47,0.04,5.21-0.02c0.8-0.02,1.07,0.23,1.06,1.05c-0.04,2.48-0.05,4.96,0,7.43C310.87,21.69,310.52,21.93,309.65,21.92z"
		/>
	<path class="st0" d="M297.73-3.68c4.53,0.12,9.07,0.12,13.6-0.01c3.25-0.09,5.71-2.6,5.82-5.87c0.12-3.41,0.12-6.83,0.01-10.24
		c-0.11-3.45-2.64-5.9-6.09-6.02c-2.17-0.07-4.35-0.01-6.52-0.02c-2.17,0-4.35-0.05-6.52,0.01c-3.51,0.1-6.14,2.61-6.25,6.1
		c-0.11,3.35-0.11,6.71,0.01,10.05C291.9-6.33,294.42-3.76,297.73-3.68z M299.19-19.48c1.8,0.03,3.6,0.01,5.39,0.01
		c1.74,0,3.47,0.04,5.21-0.02c0.81-0.02,1.07,0.24,1.05,1.05c-0.05,2.48-0.05,4.96,0,7.44c0.02,0.85-0.31,1.03-1.08,1.03
		c-3.53-0.03-7.07-0.03-10.6,0c-0.78,0.01-1.09-0.22-1.08-1.05c0.04-2.48,0.05-4.96,0-7.44C298.06-19.33,298.44-19.5,299.19-19.48z"
		/>
	<path class="st0" d="M332.95-3.65c2.17,0.09,4.35,0.02,6.52,0.01c2.24,0,4.47,0.08,6.71-0.02c3.44-0.15,5.94-2.68,6.01-6.1
		c0.08-3.29,0.07-6.58,0-9.87c-0.07-3.53-2.6-6.11-6.13-6.18c-4.35-0.08-8.69-0.08-13.04,0c-3.59,0.06-6.17,2.7-6.23,6.29
		c-0.05,3.16-0.05,6.33,0,9.5C326.85-6.41,329.36-3.79,332.95-3.65z M334.32-19.49c3.48,0.03,6.95,0.05,10.43-0.01
		c0.92-0.01,1.15,0.3,1.13,1.17c-0.05,2.42-0.06,4.84,0,7.26c0.03,0.97-0.37,1.12-1.2,1.1c-1.74-0.05-3.48-0.02-5.21-0.02
		c-1.74,0-3.48-0.05-5.21,0.02c-0.92,0.03-1.15-0.29-1.13-1.17c0.05-2.42,0.07-4.84,0-7.26C333.09-19.37,333.5-19.5,334.32-19.49z"
		/>
	<path class="st0" d="M345.43,5.96c-2.05-0.03-4.1-0.01-6.15,0c-1.99,0-3.97-0.02-5.96,0.01c-3.86,0.06-6.5,2.71-6.53,6.6
		c-0.03,3.04-0.03,6.08,0,9.12c0.04,3.56,2.36,6.22,5.86,6.51c2.28,0.19,4.59,0.13,6.89,0.03c1.9-0.08,3.21-1.54,3.16-3.24
		c-0.04-1.73-1.37-3-3.31-3.06c-1.67-0.05-3.36-0.07-5.03,0c-1,0.04-1.27-0.32-1.24-1.27c0.06-2.3,0.11-4.6-0.01-6.89
		c-0.07-1.33,0.47-1.49,1.59-1.47c3.6,0.06,7.2,0.04,10.8,0.01c2.14-0.02,3.61-1.37,3.59-3.2C349.06,7.27,347.6,5.99,345.43,5.96z"
		/>
	<path class="st0" d="M342.28,53.7c-2.67-0.03-5.34-0.04-8.01,0.01c-0.88,0.02-1.18-0.22-1.16-1.13c0.06-2.42,0.07-4.84,0-7.26
		c-0.03-1.03,0.37-1.26,1.3-1.22c1.61,0.06,3.23,0.05,4.84,0c2.07-0.06,3.43-1.33,3.45-3.12c0.02-1.78-1.35-3.14-3.4-3.21
		c-2.11-0.07-4.22-0.11-6.33,0.01c-3.7,0.21-6.14,2.85-6.19,6.57c-0.02,1.49,0,2.98,0,4.47c0,1.61-0.03,3.23,0.01,4.84
		c0.08,3.65,2.73,6.31,6.37,6.37c3.04,0.05,6.08,0.03,9.12,0.01c2.22-0.02,3.56-1.24,3.56-3.17
		C345.85,54.96,344.49,53.73,342.28,53.7z"/>
	<path class="st0" d="M409.59-6.75c-26.37-0.05-47.75,21.31-47.76,47.71c-0.01,26.36,21.42,47.79,47.76,47.76
		c26.26-0.02,47.69-21.4,47.75-47.63C457.4,14.85,435.89-6.7,409.59-6.75z M447.44,57.56c-0.48,1.15-0.96,1.21-1.86,0.54
		c-0.49-0.37-1.05-0.68-1.62-0.92c-1.65-0.68-3.36-0.07-4.14,1.45c-0.76,1.47-0.34,3.05,1.09,4.09c0.05,0.04,0.1,0.07,0.16,0.1
		c2.61,1.77,2.6,1.76,0.51,4.31c-2.22,2.71-4.76,5.06-7.54,7.18c-0.81,0.62-1.3,0.78-1.75-0.33c-0.25-0.62-0.62-1.23-1.04-1.75
		c-1.04-1.3-2.35-1.79-3.94-1.04c-1.5,0.71-2.14,2.28-1.63,3.92c0.06,0.18,0.16,0.33,0.23,0.51c0.37,0.89,1.53,1.76,1.17,2.55
		c-0.39,0.87-1.77,0.98-2.74,1.38c-3.12,1.27-6.39,1.94-9.71,2.49c-1.57,0.26-2.17-0.23-1.92-1.81c0.07-0.42,0.02-0.87-0.03-1.3
		c-0.18-1.67-1.29-2.78-2.87-2.88c-1.68-0.11-2.98,0.88-3.36,2.57c-0.04,0.18-0.04,0.37-0.09,0.55c-0.25,0.96,0.6,2.33-0.47,2.83
		c-0.76,0.36-1.93-0.11-2.91-0.26c-3.46-0.5-6.75-1.54-9.97-2.9c-0.97-0.41-1.45-0.77-0.63-1.77c0.38-0.47,0.65-1.06,0.9-1.62
		c0.75-1.66,0.22-3.34-1.28-4.18c-1.44-0.8-3.05-0.43-4.13,0.95c-0.04,0.05-0.07,0.1-0.11,0.15c-0.64,0.8-0.8,2.42-1.74,2.39
		c-0.92-0.04-1.83-1.14-2.69-1.84c-2.7-2.22-5.06-4.76-7.17-7.55c-0.59-0.78-0.6-1.23,0.35-1.63c0.56-0.24,1.09-0.59,1.6-0.95
		c1.51-1.06,1.96-2.74,1.15-4.23c-0.79-1.45-2.57-1.99-4.2-1.31c-0.95,0.39-1.95,1.69-2.7,1.17c-0.83-0.57-1.11-1.99-1.52-3.08
		c-1.2-3.21-2-6.51-2.35-9.93c-0.1-0.99,0.11-1.39,1.14-1.28c0.61,0.06,1.24,0.03,1.86-0.02c1.77-0.15,2.95-1.29,3.06-2.92
		c0.11-1.67-1.04-3.05-2.83-3.36c-0.12-0.02-0.25-0.03-0.37-0.04c-3.15-0.32-3.12-0.31-2.55-3.59c0.6-3.44,1.6-6.74,2.98-9.95
		c0.4-0.94,0.79-1.08,1.59-0.51c0.55,0.39,1.16,0.72,1.78,0.99c1.58,0.7,3.21,0.2,4.06-1.19c0.86-1.41,0.55-3.07-0.78-4.16
		c-0.14-0.12-0.3-0.21-0.46-0.32c-2.47-1.64-2.48-1.65-0.64-3.94c2.27-2.82,4.89-5.28,7.77-7.48c0.85-0.64,1.33-0.65,1.78,0.37
		c0.3,0.67,0.7,1.33,1.16,1.9c1.01,1.24,2.69,1.5,4.03,0.7c1.32-0.78,1.88-2.4,1.33-3.88c-0.06-0.17-0.15-0.34-0.23-0.51
		c-1.3-2.67-1.3-2.67,1.56-3.79c3.25-1.27,6.61-2.08,10.08-2.51c1.2-0.15,1.7,0.04,1.57,1.35c-0.08,0.79-0.01,1.63,0.2,2.39
		c0.43,1.58,1.6,2.38,3.2,2.26c1.59-0.12,2.62-1.03,2.88-2.67c0.04-0.24,0.05-0.49,0.06-0.74c0.14-2.87,0.14-2.89,2.95-2.44
		c3.63,0.58,7.13,1.61,10.52,3.03c0.96,0.4,1.26,0.84,0.58,1.75c-0.37,0.49-0.68,1.05-0.93,1.61c-0.73,1.62-0.17,3.41,1.26,4.21
		c1.52,0.85,3.12,0.42,4.25-1.08c0.62-0.82,0.81-2.42,1.74-2.39c0.92,0.03,1.85,1.11,2.71,1.82c2.65,2.18,4.98,4.66,7.07,7.4
		c0.68,0.89,0.82,1.41-0.36,1.89c-0.62,0.25-1.21,0.63-1.75,1.05c-1.36,1.05-1.68,2.74-0.84,4.15c0.82,1.38,2.51,1.92,4.06,1.22
		c0.96-0.43,1.85-1,2.86-1.55c2.12,4.28,3.35,8.79,3.85,13.52c0.09,0.8-0.1,1.13-0.96,1.08c-0.86-0.04-1.76-0.06-2.59,0.13
		c-1.66,0.38-2.53,1.49-2.48,3.23c0.05,1.6,1.15,2.66,2.79,2.97c1.08,0.21,2.62-0.65,3.16,0.58c0.38,0.88-0.12,2.18-0.3,3.28
		C449.75,51.28,448.73,54.45,447.44,57.56z"/>
	<path class="st0" d="M416.4,43.28c-3.06-3.04-3.06-3.03-1.35-7.02c2.27-5.28,4.56-10.56,6.79-15.86c1.06-2.51-0.28-4.8-2.73-4.81
		c-1.66,0.01-2.56,0.97-3.17,2.4c-3,7.06-6,14.12-9.07,21.15c-0.78,1.79-0.49,3.18,0.87,4.52c3.93,3.88,7.81,7.81,11.73,11.71
		c1.75,1.74,3.67,1.9,5.05,0.48c1.33-1.38,1.18-3.23-0.49-4.92C421.51,48.36,418.95,45.82,416.4,43.28z"/>
</g>
<g>
	<path class="st0" d="M117.44-68.59c0,0-0.01,0-0.01-0.01C117.43-68.59,117.43-68.59,117.44-68.59
		C117.44-68.59,117.44-68.59,117.44-68.59z"/>
	<path class="st0" d="M145.03-35.35c3.43-1.65,5.21-4.35,5.21-8.18c0.01-10,0.01-20,0-30c0-2.5-0.65-3.49-2.23-3.57
		c-1.61-0.07-2.64,1.09-2.77,3.44c-0.19,3.55-0.06,7.11-0.07,10.67c-0.02,6.13,0.02,12.27-0.01,18.4c-0.02,3.5-1.28,4.77-4.74,4.89
		c-0.67,0.02-1.35,0.01-2.02,0.01c-39.81,0-79.63,0-119.44,0c-5.78,0-6.74-0.95-6.74-6.73c0-54.6,0-109.19,0-163.79
		c0-5.52,1.06-6.6,6.53-6.6c40.06,0,80.12,0,120.18,0c0.43,0,0.86,0,1.29,0.01c3.63,0.1,4.95,1.42,4.95,5.09
		c0.02,18.1,0,36.19,0.01,54.29c0,1.23-0.05,2.46,0.33,3.65c0.42,1.31,1.23,2.14,2.7,1.96c1.4-0.18,1.92-1.16,2.01-2.45
		c0.05-0.67,0.04-1.35,0.04-2.02c0-18.53-0.15-37.05,0.08-55.58c0.09-7.03-5.04-10.07-10.04-10.06
		c-41.04,0.07-82.08,0.03-123.12,0.05c-6.39,0-10.03,3.67-10.03,10.1c-0.01,55.7,0,111.4-0.02,167.1c0,4.46,1.79,7.65,5.89,9.52
		c0.52,0.24,1.24,0.34,1.27,1.15c43.07,0,86.13,0,129.2,0C143.55-34.96,144.4-35.05,145.03-35.35z"/>
	<path class="st0" d="M151.06-46.23c-0.25-9.01-0.06-18.03-0.07-27.05c0-0.79,0.01-1.61-0.18-2.37c-0.35-1.4-1.33-2.17-2.78-2.23
		c-1.52-0.07-2.63,0.64-3.06,2.1c-0.24,0.8-0.25,1.69-0.25,2.54c-0.02,9.45-0.01,18.89-0.01,28.34c0,3.74-0.9,4.63-4.68,4.63
		c-40.85,0-81.71,0-122.56,0c-3.72,0-4.64-0.93-4.64-4.7c0-55.51,0-111.03,0-166.54c0-3.74,0.93-4.65,4.7-4.65
		c40.85,0,81.71,0,122.56,0c3.72,0,4.63,0.92,4.63,4.69c0,18.59,0,37.17,0.01,55.76c0,0.79,0.03,1.6,0.2,2.37
		c0.34,1.6,1.6,2.48,3.21,2.37c1.9-0.13,2.88-1.41,2.88-3.96c0.01-19.14,0.04-38.28-0.01-57.41c-0.02-6.32-3.96-10.09-10.33-10.09
		c-41.22-0.01-82.44-0.01-123.67,0c-6.55,0-10.44,3.86-10.44,10.37c-0.01,55.88,0,111.76,0.01,167.64c0,0.98,0.05,1.97,0.25,2.92
		c0.86,4.11,3.71,6.27,7.47,7.5c-0.03-0.81-0.75-0.91-1.27-1.15c-4.09-1.86-5.89-5.05-5.89-9.52c0.03-55.7,0.01-111.4,0.02-167.1
		c0-6.42,3.64-10.09,10.03-10.1c41.04-0.01,82.08,0.02,123.12-0.05c5-0.01,10.12,3.03,10.04,10.06
		c-0.23,18.52-0.08,37.05-0.08,55.58c0,0.67,0.01,1.35-0.04,2.02c-0.09,1.29-0.6,2.28-2.01,2.45c-1.47,0.18-2.28-0.65-2.7-1.96
		c-0.38-1.19-0.33-2.42-0.33-3.65c0-18.1,0.01-36.19-0.01-54.29c0-3.68-1.32-5-4.95-5.09c-0.43-0.01-0.86-0.01-1.29-0.01
		c-40.06,0-80.12,0-120.18,0c-5.47,0-6.53,1.08-6.53,6.6c0,54.6,0,109.19,0,163.79c0,5.78,0.96,6.73,6.74,6.73
		c39.81,0,79.63,0,119.44,0c0.67,0,1.35,0.01,2.02-0.01c3.46-0.12,4.73-1.4,4.74-4.89c0.03-6.13,0-12.27,0.01-18.4
		c0.01-3.56-0.12-7.12,0.07-10.67c0.13-2.35,1.16-3.51,2.77-3.44c1.58,0.07,2.23,1.07,2.23,3.57c0.01,10,0.01,20,0,30
		c0,3.83-1.78,6.52-5.21,8.18c-0.62,0.3-1.48,0.39-1.56,1.34C149.37-35.99,151.22-40.29,151.06-46.23z"/>
	<path class="st0" d="M194.07-177.96c-1.11-3.43-3.48-5.47-6.97-6.05c-3.96-0.65-7.08,0.85-9.29,4.21
		c-0.27,0.41-0.54,0.82-0.75,1.27c-0.49,1.05-1.19,1.65-2.45,1.48c-1.47-0.19-2.4,0.6-3.11,1.82c-2.04,3.5-4.04,7.02-6.13,10.48
		c-1.52,2.5-1.64,2.54-4.29,1.3c-0.73-0.34-1.47-0.63-2.3-0.44c-0.97,0.23-1.67,0.78-1.91,1.78c-0.31,1.31,0.27,2.25,1.27,3.02
		c2.74,2.11,2.71,2.1,0.96,5.15c-8.14,14.14-16.34,28.24-24.43,42.41c-1.88,3.3-2.8,7.06-4.16,10.61c-1.69,4.41-3.2,8.88-5.7,12.94
		c-1.86,3.03-2.09,6.23-0.5,9.48c0.45,0.92,0.37,1.74-0.28,2.56c-1.75,2.21-3.53,4.4-5.36,6.55c-0.52,0.61-0.89,0.87-1.22,0.8
		c0,0-0.01,0.01-0.01,0.01c0-0.01,0-0.01-0.01-0.01c-0.3-0.07-0.58-0.41-0.9-1.04c-0.51-0.98-0.82-2.05-1.27-3.06
		c-1.01-2.25-2.55-3.93-5.14-4.22c-2.49-0.28-4.18,1.07-5.55,2.96c-0.11,0.15-0.2,0.31-0.31,0.46c-0.29,0.39-0.54,0.93-1.11,0.81
		c-0.6-0.12-0.58-0.73-0.61-1.2c-0.21-3.12-0.69-6.21-0.79-9.33c-0.04-1.23-0.18-2.48-0.76-3.57c-1.06-2-2.57-3.43-5.03-3.43
		c-2.54-0.01-4.31,1.19-5.43,3.42c-0.33,0.66-0.54,1.37-0.77,2.07c-2.23,6.69-4.46,13.39-6.69,20.08c-0.17,0.52-0.37,1.04-0.47,1.59
		c-0.26,1.51,0.43,2.73,1.84,3.18c1.42,0.45,2.37-0.23,3.04-1.4c0.37-0.64,0.55-1.36,0.79-2.06c2.11-6.09,3.95-12.26,6.02-18.36
		c0.27-0.8,0.29-2.22,1.43-2.01c1.07,0.2,0.64,1.54,0.72,2.41c0.29,3.11,0.49,6.23,0.83,9.33c0.29,2.63,2.16,4.77,4.47,5.28
		c2.63,0.58,4.68-0.34,6.22-2.52c0.41-0.59,0.75-1.41,1.61-1.35c0.98,0.07,1.08,1.05,1.4,1.75c0.5,1.12,0.86,2.3,1.5,3.36
		c1.83,3.07,5.57,3.8,8.42,1.67c1.1-0.82,1.91-1.9,2.72-2.97c1.55-2.06,3.21-4.03,4.79-6.07c0.71-0.91,1.51-1.25,2.69-1.12
		c3.55,0.4,6.61-0.89,8.38-3.89c4.02-6.82,9.47-12.5,14.28-18.69c3.33-4.28,5.66-9.18,8.37-13.84c6.17-10.6,12.25-21.26,18.41-31.87
		c0.64-1.11,0.93-3.08,3.14-2.14c2.51,1.07,3.71,2.89,3.19,5.11c-0.26,1.09-0.86,2.03-1.41,2.98c-3.41,5.82-6.74,11.69-10.12,17.53
		c-0.37,0.64-0.73,1.28-1.04,1.95c-0.75,1.65-0.38,3.06,0.99,3.83c1.2,0.68,2.54,0.18,3.55-1.35c0.94-1.44,1.73-2.96,2.6-4.45
		c3.12-5.35,6.17-10.74,9.3-16.09c2.96-5.07,1.79-10.04-3.13-13.22c-0.36-0.23-0.72-0.47-1.1-0.68c-1.21-0.67-1.37-1.51-0.68-2.74
		c2.07-3.69,4.2-7.35,6.34-11c0.91-1.56,1.32-3.03,0.09-4.59c-0.37-0.48-0.43-1.04-0.12-1.56c0.9-1.53,1.63-3.16,2.38-4.76
		c0.08-0.16,0.3-0.18,0.49-0.13c0-1.1,0-2.21,0-3.31C194.18-176.78,194.22-177.49,194.07-177.96z M136.35-83.36
		c-0.34,1.95-2.43,3.73-3.99,3.71c-1.9-0.02-3.33-1.66-3.04-3.52c0.2-1.23,0.78-2.42,1.63-3.2c1.14-1.05,1.87,0.69,2.89,0.88
		c0.17,0.03,0.35,0.14,0.47,0.27C134.92-84.5,136.6-84.75,136.35-83.36z M147.39-98.14c-2.22,2.68-4.47,5.34-6.64,8.06
		c-0.58,0.73-1.01,0.76-1.77,0.28c-1.63-1.05-4.09-1.65-4.79-3.11c-0.71-1.5,1.03-3.55,1.64-5.39c0.61-1.85,1.39-3.64,2.05-5.47
		c0.21-0.57,0.28-1.05,1.08-0.58c2.78,1.64,5.59,3.23,8.39,4.85c0.24,0.14,0.55,0.25,0.58,0.67
		C147.77-98.62,147.59-98.37,147.39-98.14z M176.11-146.44c-7.89,13.66-15.79,27.31-23.64,40.99c-0.6,1.05-1.02,1.15-2.03,0.53
		c-2.82-1.72-5.69-3.36-8.58-4.94c-0.88-0.48-0.88-0.87-0.42-1.67c8-13.81,15.97-27.63,23.94-41.46c0.35-0.61,0.57-1.11,1.47-0.56
		c2.98,1.81,6.02,3.52,9.03,5.27c0.34,0.2,0.84,0.29,0.77,0.87C176.47-147.08,176.3-146.76,176.11-146.44z M185.71-162.99
		c-1.76,2.93-3.47,5.9-5.14,8.88c-0.42,0.76-0.77,0.89-1.54,0.44c-2.99-1.78-6.02-3.5-9.03-5.25c-0.48-0.28-0.94-0.46-0.49-1.23
		c1.88-3.15,3.69-6.34,5.52-9.51c0.15-0.26,0.27-0.56,0.68-0.46c0.25,0.14,0.52,0.29,0.78,0.44c2.91,1.68,5.81,3.39,8.74,5.02
		C186.06-164.2,186.22-163.84,185.71-162.99z M186.45-171.25c-0.46-0.01-5.02-2.84-5.04-3.13c-0.07-1.3,2.6-3.97,4.02-4.02
		c1.78-0.06,3.22,1.28,3.24,3.01C188.68-174.21,187.08-171.24,186.45-171.25z"/>
	<path class="st0" d="M184.07-184.58c-3.55,0.49-5.74,2.74-7.4,5.71c-0.33,0.6-0.37,1.63-1.61,1.33c-1.93-0.47-3.09,0.56-4,2.14
		c-2.19,3.82-4.5,7.58-6.63,11.43c-0.69,1.23-1.21,1.28-2.35,0.57c-2.55-1.58-4.41-1.39-5.47,0.35c-1.1,1.81-0.33,3.56,2.41,5.04
		c1.16,0.63,1.32,1.1,0.63,2.29c-8.4,14.44-16.73,28.92-25.09,43.38c-0.55,0.96-1.01,1.95-1.42,2.97
		c-2.95,7.5-5.22,15.27-9.28,22.32c-1.68,2.92-1.48,6,0.11,8.95c0.33,0.62,0.43,1.03-0.06,1.61c-2.15,2.57-4.25,5.17-6.48,7.89
		c0.34,0.07,0.71-0.2,1.22-0.8c1.83-2.15,3.61-4.34,5.36-6.55c0.65-0.82,0.73-1.64,0.28-2.56c-1.59-3.25-1.36-6.45,0.5-9.48
		c2.5-4.06,4.01-8.53,5.7-12.94c1.36-3.55,2.28-7.31,4.16-10.61c8.08-14.17,16.29-28.27,24.43-42.41c1.75-3.04,1.78-3.03-0.96-5.15
		c-1-0.77-1.58-1.71-1.27-3.02c0.24-1,0.94-1.55,1.91-1.78c0.83-0.2,1.57,0.09,2.3,0.44c2.65,1.25,2.78,1.21,4.29-1.3
		c2.1-3.46,4.1-6.98,6.13-10.48c0.71-1.22,1.64-2.02,3.11-1.82c1.26,0.17,1.96-0.44,2.45-1.48c0.21-0.44,0.48-0.86,0.75-1.27
		c2.21-3.36,5.33-4.86,9.29-4.21c3.49,0.57,5.86,2.62,6.97,6.05c0.15,0.46,0.11,1.18,0.93,1.13c-0.1-0.13-0.26-0.26-0.29-0.41
		C193.44-182.4,189.27-185.3,184.07-184.58z"/>
	<path class="st0" d="M194.51-173.39c-0.76,1.61-1.48,3.23-2.38,4.76c-0.31,0.52-0.25,1.08,0.12,1.56c1.22,1.56,0.82,3.03-0.09,4.59
		c-2.14,3.65-4.27,7.31-6.34,11c-0.68,1.22-0.53,2.06,0.68,2.74c0.38,0.21,0.74,0.44,1.1,0.68c4.91,3.18,6.09,8.15,3.13,13.22
		c-3.13,5.35-6.18,10.74-9.3,16.09c-0.86,1.48-1.65,3.01-2.6,4.45c-1.01,1.53-2.35,2.02-3.55,1.35c-1.37-0.77-1.74-2.18-0.99-3.83
		c0.3-0.67,0.67-1.31,1.04-1.95c3.38-5.84,6.72-11.7,10.12-17.53c0.56-0.95,1.16-1.89,1.41-2.98c0.52-2.22-0.68-4.05-3.19-5.11
		c-2.21-0.94-2.5,1.04-3.14,2.14c-6.16,10.61-12.24,21.26-18.41,31.87c-2.71,4.66-5.04,9.56-8.37,13.84
		c-4.81,6.19-10.25,11.87-14.28,18.69c-1.77,3-4.83,4.29-8.38,3.89c-1.19-0.13-1.99,0.21-2.69,1.12c-1.58,2.04-3.24,4.01-4.79,6.07
		c-0.81,1.07-1.62,2.15-2.72,2.97c-2.86,2.13-6.59,1.39-8.42-1.67c-0.63-1.06-0.99-2.24-1.5-3.36c-0.31-0.7-0.42-1.68-1.4-1.75
		c-0.85-0.06-1.2,0.76-1.61,1.35c-1.53,2.19-3.58,3.11-6.22,2.52c-2.31-0.51-4.18-2.65-4.47-5.28c-0.34-3.1-0.55-6.22-0.83-9.33
		c-0.08-0.87,0.35-2.21-0.72-2.41c-1.14-0.21-1.16,1.21-1.43,2.01c-2.06,6.1-3.91,12.27-6.02,18.36c-0.24,0.7-0.42,1.42-0.79,2.06
		c-0.68,1.18-1.62,1.85-3.04,1.4c-1.41-0.45-2.1-1.67-1.84-3.18c0.09-0.55,0.29-1.06,0.47-1.59c2.23-6.69,4.46-13.39,6.69-20.08
		c0.23-0.7,0.44-1.41,0.77-2.07c1.12-2.23,2.88-3.43,5.43-3.42c2.46,0.01,3.97,1.43,5.03,3.43c0.58,1.09,0.72,2.34,0.76,3.57
		c0.1,3.13,0.58,6.22,0.79,9.33c0.03,0.47,0.01,1.08,0.61,1.2c0.57,0.12,0.82-0.43,1.11-0.81c0.11-0.15,0.2-0.31,0.31-0.46
		c1.37-1.88,3.06-3.24,5.55-2.96c2.59,0.29,4.13,1.97,5.14,4.22c0.45,1.01,0.77,2.08,1.27,3.06c0.32,0.63,0.6,0.97,0.9,1.04
		c-0.71-1.75-1.27-3.36-1.99-4.9c-2.27-4.82-8.04-5.3-11.14-0.97c-0.36,0.5-0.48,1.23-1.2,1.49c-0.38-4.2-0.67-8.29-1.16-12.37
		c-0.35-2.88-2.62-5.06-5.25-5.37c-2.93-0.35-5.76,1.16-6.73,3.97c-2.68,7.74-5.24,15.51-7.8,23.29c-0.48,1.47-0.09,2.8,1.29,3.69
		c1.98,1.28,3.94,0.44,4.79-2.1c2.24-6.66,4.43-13.34,6.65-20c0.19-0.56,0.2-1.25,0.93-1.77c0.32,3.87,0.63,7.52,0.93,11.18
		c0.27,3.3,2.12,5.68,4.93,6.35c2.64,0.63,5.24-0.57,7.04-3.23c0.28-0.42,0.34-1.07,1.07-1.17c0.53,1.3,1.04,2.6,1.58,3.89
		c2.24,5.39,7.75,6.18,11.44,1.62c2.04-2.52,4.05-5.08,6.05-7.64c0.47-0.61,0.89-1,1.8-0.87c4.53,0.61,7.8-1.34,10.11-5.16
		c1.17-1.93,2.13-4.01,3.67-5.71c7.77-8.58,14.26-18.04,19.61-28.3c0.23-0.43,0.48-0.85,0.72-1.28
		c5.62-9.75,11.24-19.51,16.88-29.25c0.27-0.46,0.26-1.3,1.16-1.15c3.18,0.52,4.66,3.57,3.05,6.39c-3.19,5.58-6.41,11.13-9.61,16.71
		c-0.91,1.59-1.88,3.16-2.65,4.82c-0.82,1.77,0.01,3.5,1.8,4.12c1.55,0.53,2.88-0.03,3.93-1.84c4.06-6.98,8.08-13.99,12.11-20.99
		c0.77-1.34,1.31-2.76,1.39-4.32c0.23-4.62-2.11-7.66-6.04-9.62c-1.17-0.59-1.25-1.08-0.59-2.17c2.3-3.83,4.49-7.72,6.73-11.58
		c0.88-1.51,1.16-3.01-0.19-4.37c-0.54-0.54-0.39-0.91-0.07-1.4c1-1.53,1.67-3.22,2.36-4.89
		C194.81-173.57,194.59-173.55,194.51-173.39z"/>
	<path class="st0" d="M39.49-184.76c13.06,0,26.12,0,39.18,0s26.12,0,39.18-0.01c0.79,0,1.6-0.01,2.38-0.15
		c1.63-0.3,2.43-1.47,2.43-2.99c0-1.44-0.75-2.6-2.28-2.92c-0.83-0.17-1.7-0.22-2.55-0.22c-24.16-0.01-48.32-0.01-72.48-0.01
		c-4.25,0-4.17,0-4.29-4.23c-0.05-1.69,0.42-2.1,2.1-2.09c24.9,0.06,49.79,0.04,74.69,0.04c0.73,0,1.48,0.01,2.2-0.09
		c1.64-0.22,2.53-1.31,2.61-2.85c0.09-1.53-0.67-2.67-2.26-3.14c-0.79-0.23-1.57-0.21-2.37-0.21c-17.66,0-35.32,0-52.98,0
		c-8.71,0-17.42-0.01-26.12,0.01c-3.01,0.01-4.08,1.1-4.09,4.12c-0.01,3.37,0,6.75,0,10.12C34.83-185.61,35.68-184.76,39.49-184.76z
		"/>
	<path class="st0" d="M69.46-76.35c-1.91-0.07-3.15,1.29-3.29,3.61c-0.77,12.75-11.01,21.28-23.54,19.61
		c-9.93-1.33-17.68-10.68-17.25-20.82c0.45-10.57,8.92-19.26,19.16-19.68c4.89-0.2,9.28,1.14,13.32,3.89
		c1.83,1.24,3.69,0.85,4.66-0.71c0.98-1.57,0.48-3.32-1.31-4.56c-4.55-3.15-9.58-4.82-15.68-4.92c-1.3-0.13-3.14,0.14-4.93,0.51
		c-14.03,2.94-22.94,15.55-21.2,29.88c1.63,13.39,14.07,23.69,27.7,22.94c13.98-0.77,25.16-12.2,25.34-25.89
		C72.47-74.88,71.39-76.28,69.46-76.35z"/>
	<path class="st0" d="M58.89-156.24c-1.43,0.54-2.12,1.62-2.01,3.13c0.12,1.52,0.97,2.5,2.48,2.77c0.72,0.13,1.47,0.1,2.2,0.1
		c10.92,0.01,21.83,0,32.75,0c11.04,0,22.08,0,33.11,0c0.67,0,1.36,0.02,2.02-0.08c1.61-0.23,2.52-1.22,2.63-2.82
		c0.11-1.6-0.66-2.72-2.24-3.13c-0.7-0.18-1.45-0.24-2.18-0.24c-22.14-0.01-44.27-0.01-66.41-0.01
		C60.44-156.53,59.64-156.53,58.89-156.24z"/>
	<path class="st0" d="M33.21-131.37c19.92,0,39.84,0,59.77-0.01c0.73,0,1.48-0.02,2.19-0.17c1.51-0.32,2.32-1.34,2.36-2.85
		c0.04-1.6-0.73-2.71-2.32-3.07c-0.77-0.17-1.58-0.2-2.37-0.2c-9.87-0.01-19.74-0.01-29.61-0.01c-9.99,0-19.98,0-29.98,0
		c-3.18,0-4.65,1-4.67,3.14C28.57-132.38,30.04-131.37,33.21-131.37z"/>
	<path class="st0" d="M109.96-172.18c2.05-0.19,3.36-1.47,3.32-3.21c-0.04-1.79-1.32-2.93-3.45-3.05c-0.49-0.03-0.98-0.01-1.47-0.01
		c-9.81,0-19.62,0-29.43,0c-9.99,0-19.99,0-29.98,0.01c-0.73,0-1.48,0.01-2.2,0.14c-1.63,0.28-2.44,1.42-2.46,2.97
		c-0.02,1.46,0.72,2.6,2.24,2.95c0.76,0.18,1.58,0.22,2.37,0.22c19.93,0.01,39.85,0.01,59.78,0.01
		C109.11-172.17,109.54-172.14,109.96-172.18z"/>
	<path class="st0" d="M32.4-115.7c4.96,0.02,9.92,0,14.88,0c5.02,0,10.04,0.01,15.06,0c2.39-0.01,3.77-1.13,3.82-3.03
		c0.05-1.95-1.42-3.23-3.84-3.23c-9.98-0.02-19.96-0.02-29.94,0c-2.37,0-3.76,1.17-3.8,3.07C28.53-116.87,29.9-115.7,32.4-115.7z"/>
	<path class="st0" d="M55.51-81.13c-3.16,3.17-6.37,6.29-9.48,9.51c-0.87,0.9-1.34,0.8-2.13-0.04c-1.67-1.79-3.43-3.51-5.19-5.21
		c-1.63-1.58-3.37-1.71-4.73-0.44c-1.38,1.3-1.3,3.22,0.3,4.86c2.01,2.07,4.07,4.09,6.11,6.12c1.27,1.27,2.81,1.94,4.77,1.97
		c1.35-0.06,2.79-0.43,3.88-1.5c3.8-3.74,7.63-7.46,11.32-11.31c1.65-1.72,0.92-4.37-1.22-5.07C57.67-82.73,56.53-82.16,55.51-81.13
		z"/>
	<path class="st0" d="M129.5-137.51c-0.6-0.11-1.21-0.15-1.82-0.15c-6.44-0.01-12.87-0.01-19.31,0c-0.73,0-1.48,0.04-2.18,0.22
		c-1.41,0.36-2.14,1.36-2.22,2.79c-0.11,1.94,1.24,3.23,3.57,3.27c3.49,0.06,6.99,0.02,10.48,0.02c1.04,0,2.08,0.01,3.13,0
		c2.76-0.03,5.52,0.02,8.26-0.14c1.71-0.1,2.64-1.26,2.66-2.95C132.1-136.15,131.19-137.21,129.5-137.51z"/>
	<path class="st0" d="M96.94-115.7c2.35-0.01,3.78-1.2,3.8-3.08c0.02-1.87-1.45-3.16-3.75-3.17c-6.93-0.03-13.86-0.03-20.79,0
		c-2.29,0.01-3.76,1.35-3.71,3.22c0.05,1.82,1.46,3.02,3.66,3.04c3.43,0.03,6.87,0.01,10.3,0.01
		C89.95-115.69,93.45-115.68,96.94-115.7z"/>
</g>
<path class="st1" d="M314.09,630.03c-1.15,0.45-2.49-0.29-3.57,0.54c1.25,0,2.49,0,3.74,0C314.13,630.38,314.08,630.2,314.09,630.03
	z"/>
<path class="st1" d="M314.38,629.91c-0.09,0.06-0.19,0.08-0.28,0.12c-0.02,0.17,0.04,0.35,0.17,0.54
	C314.21,630.33,314.25,630.11,314.38,629.91z"/>
<path class="st1" d="M314.09,630.03c0.01-0.05,0.03-0.11,0.05-0.16c-1.28-0.2-2.54-0.28-3.62,0.7
	C311.6,629.74,312.95,630.47,314.09,630.03z"/>
<path class="st1" d="M314.09,630.03c0.1-0.04,0.19-0.07,0.28-0.12c-0.08-0.01-0.16-0.02-0.24-0.04
	C314.12,629.92,314.1,629.97,314.09,630.03z"/>
<g>
	<path class="st0" d="M-168.48-226.93c-0.01,0.02-0.02,0.04-0.03,0.05c-0.03,0.04-0.06,0.06-0.09,0.08
		c0.07,0.02,0.15,0.04,0.22,0.06C-168.42-226.8-168.45-226.86-168.48-226.93z"/>
	<path class="st0" d="M-70.64-377.07c-1.63-3.3-4.28-4.95-7.95-4.97c-0.68,0-1.35-0.01-2.03-0.01c-55.38,0-110.75,0-166.13,0
		c-1.1,0-2.21-0.05-3.31,0.08c-4.06,0.45-6.85,3.25-7.31,7.31c-0.1,0.86-0.08,1.72-0.08,2.58c0,45.31,0,90.62,0,135.93
		c0,0.68-0.01,1.35,0.04,2.03c0.29,3.78,2.86,6.69,6.56,7.43c1.33,0.27,2.66,0.43,4.02,0.43c13.63,0,27.26,0,40.89-0.01
		c1.11,0,2.21,0,3.26-0.46c1.01-0.45,1.54-1.21,1.43-2.32c-0.12-1.15-0.85-1.71-1.95-1.85c-0.79-0.1-1.59-0.07-2.39-0.07
		c-13.32,0-26.64,0-39.97,0c-0.74,0-1.47,0.01-2.21-0.02c-3.63-0.15-4.95-1.47-4.95-5.14c-0.01-37.21-0.01-74.41,0-111.62
		c0-3.16,0.31-3.41,3.93-3.41c56.66,0,113.33,0,169.99,0c0.25,0,0.49,0,0.74,0c2.95,0.04,3.34,0.38,3.34,3.27
		c0.01,37.33,0.02,74.66,0,111.99c0,3.4-1.49,4.84-5.23,4.89c-6.94,0.1-13.87,0.02-20.81,0.03c-0.68,0-1.35-0.01-2.03,0.02
		c-1.21,0.06-2.2,0.45-2.34,1.84c-0.14,1.4,0.65,2.16,1.91,2.53c0.77,0.23,1.57,0.31,2.37,0.31c6.88,0.01,13.75,0.02,20.63-0.01
		c1.36-0.01,2.69-0.25,4.02-0.5c2.4-0.47,4.02-1.96,5.21-4.03c0.41-0.7,0.51-1.71,1.59-1.86c0-47.65,0-95.3,0-142.96
		C-70.3-375.71-70.36-376.51-70.64-377.07z M-76.98-356.4c-28.97-0.04-57.94-0.03-86.91-0.03c-28.66,0-57.33-0.02-85.99,0.05
		c-1.98,0.01-2.36-0.57-2.31-2.4c0.14-4.78,0.04-9.57,0.05-14.36c0-2.6,0.96-3.59,3.51-3.59c56.59,0,113.18,0,169.78,0
		c2.58,0,3.54,0.97,3.55,3.55c0.01,5.03-0.06,10.07,0.04,15.1C-75.24-356.69-75.62-356.4-76.98-356.4z"/>
	<path class="st0" d="M-80.23-382.64c-55.87,0-111.74,0.05-167.61-0.08c-6.06-0.01-10.3,3.9-10.27,10.36
		c0.15,45.44,0.15,90.87,0,136.31c-0.02,5.87,3.57,10.34,10.19,10.26c14.36-0.18,28.73-0.05,43.1-0.06c0.79,0,1.62,0,2.37-0.21
		c1.42-0.39,2.12-1.47,2.05-2.9c-0.07-1.43-0.85-2.42-2.32-2.67c-0.66-0.11-1.34-0.1-2.02-0.1c-14.43,0-28.86,0-43.28-0.01
		c-3.32,0-4.12-0.8-4.12-4.12c0-37.58,0.01-75.16-0.04-112.73c0-1.63,0.39-1.98,2-1.98c57.65,0.05,115.3,0.05,172.95,0
		c1.66,0,1.97,0.44,1.97,2.01c-0.05,37.52-0.04,75.03-0.04,112.55c0,3.53-0.75,4.28-4.34,4.28c-7.55,0-15.1,0.01-22.66-0.01
		c-1.68,0-3.09,0.38-3.57,2.19c-0.54,2.05,0.9,3.68,3.38,3.69c8.04,0.04,16.09,0.02,24.13,0c2.64-0.01,4.89-0.94,6.72-2.89
		c1.07-1.14,1.5-2.61,2.23-3.93c-1.08,0.14-1.18,1.16-1.59,1.86c-1.19,2.07-2.82,3.56-5.21,4.03c-1.32,0.26-2.66,0.5-4.02,0.5
		c-6.88,0.03-13.75,0.02-20.63,0.01c-0.8,0-1.59-0.08-2.37-0.31c-1.26-0.38-2.05-1.13-1.91-2.53c0.14-1.39,1.13-1.78,2.34-1.84
		c0.67-0.03,1.35-0.02,2.03-0.02c6.94-0.01,13.88,0.07,20.81-0.03c3.74-0.05,5.22-1.49,5.23-4.89c0.02-37.33,0.02-74.66,0-111.99
		c0-2.89-0.39-3.23-3.34-3.27c-0.25,0-0.49,0-0.74,0c-56.66,0-113.33,0-169.99,0c-3.62,0-3.93,0.25-3.93,3.41
		c-0.01,37.21-0.01,74.41,0,111.62c0,3.66,1.31,4.99,4.95,5.14c0.74,0.03,1.47,0.02,2.21,0.02c13.32,0,26.64,0,39.97,0
		c0.8,0,1.6-0.03,2.39,0.07c1.1,0.14,1.83,0.7,1.95,1.85c0.12,1.12-0.41,1.88-1.43,2.32c-1.04,0.46-2.15,0.46-3.26,0.46
		c-13.63,0-27.26,0-40.89,0.01c-1.36,0-2.7-0.16-4.02-0.43c-3.7-0.74-6.26-3.65-6.56-7.43c-0.05-0.67-0.04-1.35-0.04-2.03
		c0-45.31,0-90.62,0-135.93c0-0.86-0.02-1.72,0.08-2.58c0.46-4.06,3.25-6.85,7.31-7.31c1.1-0.12,2.21-0.08,3.31-0.08
		c55.38,0,110.75,0,166.13,0c0.68,0,1.35,0,2.03,0.01c3.68,0.02,6.32,1.67,7.95,4.97c0.28,0.56,0.35,1.37,1.23,1.43
		C-71.83-381.32-73.88-382.64-80.23-382.64z"/>
	<path class="st0" d="M-145.73-194.34c0.02-0.06,0.05-0.11,0.1-0.17c8.77-3.22,16.96-7.73,25.41-11.64c2.5-1.16,5.09-2.12,7.04-4.24
		c2.86-3.12,3.63-7.25,1.84-11.1c-4.55-9.8-9.2-19.54-13.89-29.27c-0.83-1.71-1.63-3.45-2.37-5.19c-2.41-5.66-9.79-8.58-15.18-7.83
		c-5.54,0.77-11.02,1.79-16.5,2.89c-2.45,0.49-2.68,0.38-3.76-1.78c-3.84-7.69-7.44-15.49-11.15-23.24
		c-0.45-0.95-1.01-1.83-1.61-2.68c-2.51-3.55-7.56-6.21-12.63-3.59c-4.3,2.22-6.17,7.02-4.56,12.17c0.98,3.12,2.57,5.98,3.98,8.9
		c6.76,14.05,13.3,28.2,20.13,42.21c0.3,0.62,0.88,1.32,0.39,1.99c0.03,0.07,0.06,0.13,0.1,0.2c-0.08-0.02-0.15-0.04-0.22-0.06
		c-0.56,0.53-1.34,0.14-1.98-0.04c-3.49-0.98-6.95-2.06-10.48-2.84c-2.93-0.65-5.85-0.58-8.59,0.93c-3.96,2.18-5.64,7.11-3.85,11.27
		c1.27,2.95,3.38,5.16,6.23,6.52c8.08,3.86,16.16,7.73,24.29,11.51c3.67,1.7,7.19,3.76,11.18,4.69c0.34,0.08,0.71,0.26,0.61,0.76
		c1.23,0,2.46,0,3.68,0C-146.98-194.48-146.36-194.44-145.73-194.34z M-148.15-199.9c-2.54-0.14-4.96-0.81-7.24-1.88
		c-9.41-4.42-18.8-8.89-28.2-13.33c-1.68-0.79-3.25-1.73-4.36-3.27c-0.92-1.28-1.22-2.66-0.54-4.15c0.67-1.45,1.92-1.96,3.42-2.1
		c1.49-0.13,2.93,0.13,4.35,0.54c5.3,1.51,10.6,3,15.89,4.53c1.47,0.42,2.89,0.75,4.07-0.59c1.24-1.4,0.71-2.8,0.01-4.26
		c-8.67-18.16-17.31-36.34-25.97-54.51c-0.77-1.61-1.49-3.22-1.39-5.07c0.17-3.03,3.09-4.73,5.81-3.34c1.69,0.86,2.6,2.37,3.37,4
		c3.84,8.07,7.67,16.13,11.51,24.2c1.79,3.76,3.75,4.76,7.81,3.87c5.63-1.24,11.27-2.36,16.99-3.09c4.84-0.62,8.4,1.18,10.47,5.55
		c5.12,10.77,10.25,21.55,15.36,32.32c1.89,3.98,1.08,6.23-2.9,8.12c-7.9,3.76-15.8,7.52-23.69,11.28
		C-144.89-200.37-146.45-199.85-148.15-199.9z"/>
	<path class="st0" d="M-168.87-228.91c-6.84-14.01-13.37-28.17-20.13-42.21c-1.41-2.92-3-5.78-3.98-8.9
		c-1.61-5.15,0.26-9.94,4.56-12.17c5.07-2.62,10.12,0.04,12.63,3.59c0.6,0.85,1.16,1.73,1.61,2.68c3.71,7.75,7.31,15.55,11.15,23.24
		c1.08,2.16,1.31,2.27,3.76,1.78c5.48-1.09,10.96-2.12,16.5-2.89c5.39-0.74,12.77,2.17,15.18,7.83c0.74,1.75,1.54,3.48,2.37,5.19
		c4.69,9.73,9.35,19.48,13.89,29.27c1.79,3.85,1.01,7.98-1.84,11.1c-1.95,2.12-4.54,3.08-7.04,4.24
		c-8.45,3.92-16.64,8.43-25.41,11.64c-0.05,0.05-0.08,0.11-0.1,0.17c0.04,0.01,0.08,0.01,0.12,0.02c1.62-0.09,3.1-0.68,4.54-1.37
		c8.13-3.85,16.26-7.69,24.37-11.59c6.41-3.08,8.45-8.91,5.41-15.32c-5.26-11.12-10.54-22.23-15.82-33.33
		c-2.75-5.78-9.01-9.15-15.41-8.36c-5.85,0.72-11.65,1.71-17.37,3.1c-1.4,0.34-2.04-0.01-2.64-1.3c-3.68-7.87-7.45-15.7-11.18-23.55
		c-1.18-2.49-2.76-4.63-5.13-6.11c-5.84-3.66-13.49-0.57-14.94,6.11c-0.69,3.18,0.09,6.18,1.48,9.08
		c5.91,12.37,11.78,24.75,17.67,37.13c2.01,4.22,4.03,8.44,6.16,12.9C-167.99-227.59-168.57-228.3-168.87-228.91z"/>
	<path class="st0" d="M-151.81-194.76c-4-0.93-7.51-2.99-11.18-4.69c-8.13-3.77-16.21-7.64-24.29-11.51
		c-2.85-1.36-4.96-3.57-6.23-6.52c-1.79-4.17-0.11-9.09,3.85-11.27c2.74-1.51,5.66-1.59,8.59-0.93c3.53,0.79,7,1.86,10.48,2.84
		c0.64,0.18,1.42,0.58,1.98,0.04c-2.58-0.73-4.91-1.41-7.25-2.03c-3.25-0.87-6.43-1.99-9.9-1.68c-7.44,0.67-11.42,8.56-7.4,14.85
		c1.49,2.33,3.46,4.23,5.97,5.33c12.08,5.27,23.53,11.93,36.01,16.33C-151.1-194.5-151.47-194.68-151.81-194.76z"/>
	<path class="st0" d="M-150.05-296.17c9.44,0.05,18.89,0.05,28.33,0c3.92-0.02,6.27-2.46,6.29-6.36c0.02-4.72,0.01-9.45,0.01-14.17
		c0-4.66,0.02-9.32-0.01-13.98c-0.02-3.94-2.37-6.28-6.31-6.28c-9.38-0.01-18.77-0.01-28.15,0c-3.81,0.01-6.29,2.32-6.32,6.13
		c-0.06,9.51-0.06,19.01,0,28.52C-156.18-298.66-153.69-296.19-150.05-296.17z M-148.95-331.09c4.41,0.03,8.83,0.02,13.24,0.02
		c4.35,0,8.71,0.03,13.06-0.02c0.99-0.01,1.36,0.19,1.35,1.28c-0.05,8.83-0.04,17.66,0,26.49c0.01,1.1-0.39,1.3-1.38,1.29
		c-8.77-0.03-17.54-0.03-26.31,0c-1.01,0-1.39-0.24-1.38-1.32c0.04-8.83,0.04-17.66,0-26.49C-150.37-331-149.87-331.1-148.95-331.09
		z"/>
	<path class="st0" d="M-234.99-296.19c9.64,0.09,19.28,0.09,28.92,0c3.67-0.03,5.95-2.45,5.96-6.1c0.04-9.52,0.04-19.04,0-28.55
		c-0.02-3.82-2.42-6.11-6.28-6.13c-4.67-0.02-9.33,0-14,0c-4.79,0-9.58-0.02-14.37,0.01c-3.59,0.02-6.05,2.37-6.07,5.98
		c-0.06,9.58-0.05,19.16-0.01,28.74C-240.81-298.76-238.45-296.22-234.99-296.19z M-233.4-331.11c8.65,0.07,17.29,0.06,25.94,0.01
		c1.21-0.01,1.51,0.32,1.5,1.51c-0.05,8.65-0.05,17.3,0,25.94c0.01,1.29-0.36,1.64-1.64,1.63c-8.59-0.06-17.17-0.06-25.76,0
		c-1.34,0.01-1.61-0.44-1.59-1.67c0.07-4.29,0.03-8.59,0.03-12.88c0-4.29,0.04-8.59-0.03-12.88
		C-234.95-330.64-234.78-331.12-233.4-331.11z"/>
	<path class="st0" d="M-200.1-275.41c-0.01-4.07-2.32-6.34-6.42-6.36c-4.6-0.03-9.21-0.01-13.81-0.01c-4.67,0-9.33-0.02-14,0.01
		c-4.21,0.02-6.5,2.29-6.51,6.47c-0.02,9.27-0.02,18.54,0,27.81c0.01,4.15,2.34,6.47,6.53,6.48c9.27,0.03,18.54,0.03,27.81,0
		c4.08-0.02,6.39-2.34,6.4-6.41C-200.07-256.75-200.07-266.08-200.1-275.41z M-207.39-246.94c-8.71-0.05-17.42-0.05-26.13,0
		c-1.15,0.01-1.42-0.3-1.42-1.43c0.05-8.71,0.05-17.42,0-26.13c-0.01-1.15,0.31-1.42,1.43-1.41c8.71,0.05,17.42,0.05,26.13,0
		c1.14-0.01,1.44,0.3,1.42,1.43c-0.07,4.42-0.03,8.83-0.03,13.25c0,4.29-0.04,8.59,0.03,12.88
		C-205.93-247.19-206.27-246.93-207.39-246.94z"/>
	<path class="st0" d="M-153.11-270.61c1.55-0.07,2.61-1.17,2.75-2.88c0.03-0.31,0.06-0.62,0.01-0.92c-0.21-1.27,0.39-1.51,1.55-1.5
		c8.71,0.04,17.42,0.05,26.14-0.01c1.22-0.01,1.4,0.41,1.37,1.47c-0.07,2.94-0.05,5.89-0.01,8.83c0.03,2.05,1.34,3.47,3.06,3.41
		c1.7-0.05,2.8-1.36,2.82-3.41c0.02-3.25,0.02-6.5,0-9.76c-0.02-4.07-2.29-6.37-6.37-6.4c-4.66-0.03-9.33-0.01-13.99-0.01
		c-4.42,0-8.84,0.16-13.25-0.04c-5.3-0.24-7.85,3.21-7.12,8.63C-155.93-271.55-154.67-270.54-153.11-270.61z"/>
	<path class="st0" d="M-105.72-331.09c5.26,0.03,10.53,0.03,15.79,0c2.04-0.01,3.24-1.16,3.26-2.94c0.02-1.86-1.2-2.93-3.4-2.94
		c-2.57-0.02-5.14,0-7.71,0c-2.63,0-5.26-0.02-7.89,0.01c-2.04,0.02-3.35,1.12-3.42,2.8C-109.17-332.44-107.76-331.1-105.72-331.09z
		"/>
	<path class="st0" d="M-105.47-275.89c2.57,0.03,5.14,0.01,7.71,0.01c2.51,0,5.02,0.02,7.53-0.01c2.32-0.02,3.59-1.11,3.57-3.01
		c-0.01-1.83-1.21-2.86-3.47-2.87c-5.14-0.02-10.28-0.02-15.42,0c-2.19,0.01-3.52,1.12-3.55,2.86
		C-109.13-277.13-107.7-275.92-105.47-275.89z"/>
	<path class="st0" d="M-190.3-331.08c5.22,0.03,10.44,0.03,15.65,0c2.08-0.01,3.45-1.31,3.39-3.07c-0.06-1.69-1.37-2.8-3.42-2.81
		c-2.58-0.02-5.16,0-7.74,0c-2.64,0-5.28-0.02-7.92,0.01c-2.1,0.02-3.31,1.06-3.34,2.84C-193.7-332.27-192.44-331.09-190.3-331.08z"
		/>
	<path class="st0" d="M-106.05-317.43c1.59,0.05,3.18,0.01,4.78,0.01c1.59,0,3.18,0.03,4.78-0.01c1.92-0.04,3.13-1.15,3.17-2.83
		c0.04-1.69-1.16-2.98-3-3.02c-3.24-0.06-6.49-0.06-9.73,0c-1.78,0.04-3.09,1.44-3.03,3.04
		C-109.04-318.66-107.81-317.48-106.05-317.43z"/>
	<path class="st0" d="M-96.51-268.07c-3.12-0.04-6.25-0.04-9.37,0c-1.9,0.02-3.17,1.18-3.23,2.81c-0.06,1.66,1.3,3,3.21,3.06
		c1.59,0.05,3.18,0.01,4.78,0.01c1.47,0,2.94,0,4.41,0c0.06,0,0.12,0,0.18,0c1.98-0.11,3.22-1.31,3.19-3.06
		C-93.37-266.93-94.57-268.05-96.51-268.07z"/>
	<path class="st0" d="M-190.65-317.42c1.59,0.04,3.19,0.01,4.79,0.01c1.6,0,3.19,0.03,4.79-0.01c1.81-0.05,2.99-1.14,3.06-2.76
		c0.07-1.72-1.1-3.05-2.93-3.09c-3.25-0.07-6.51-0.07-9.76,0c-1.85,0.04-3.01,1.33-2.95,3.06
		C-193.61-318.57-192.47-317.47-190.65-317.42z"/>
	<path class="st0" d="M-90.2-369.43c-0.66-0.1-1.35-0.07-2.02-0.07c-16.21,0-32.41,0-48.62,0c-16.15,0-32.29,0-48.44,0
		c-0.67,0-1.36-0.02-2.02,0.05c-1.56,0.18-2.46,1.13-2.58,2.65c-0.11,1.52,0.68,2.59,2.17,3c0.64,0.17,1.33,0.19,2,0.19
		c32.6,0.01,65.2,0.01,97.8,0c0.73,0,1.5-0.02,2.18-0.24c1.39-0.46,2.05-1.52,1.93-2.98C-87.92-368.3-88.75-369.2-90.2-369.43z"/>
	<path class="st0" d="M-215.54-369.41c-1.62-0.03-2.97,1.27-2.95,2.84c0.02,1.58,1.37,2.85,2.99,2.8c1.52-0.05,2.76-1.32,2.75-2.84
		C-212.76-368.13-214.01-369.38-215.54-369.41z"/>
	<path class="st0" d="M-228.09-369.41c-1.57,0.02-2.79,1.26-2.8,2.81c0,1.65,1.29,2.89,2.96,2.83c1.56-0.06,2.74-1.32,2.7-2.9
		C-225.27-368.23-226.52-369.43-228.09-369.41z"/>
	<path class="st0" d="M-240.52-369.41c-1.56,0.01-2.78,1.24-2.79,2.8c-0.01,1.64,1.29,2.89,2.93,2.84c1.57-0.05,2.71-1.28,2.68-2.88
		C-237.73-368.23-238.95-369.42-240.52-369.41z"/>
</g>
<g>
	<path class="st0" d="M185.69,194.46c-0.18-6.3-3.19-10.72-8.97-13.1c-1.82-0.75-2.48-1.72-2.48-3.66
		c0.05-28.66,0.03-57.32,0.04-85.98c0-3.08,0.23-3.29,3.39-3.31c2.09-0.01,4.18-0.01,6.28,0c1.18,0.01,1.75-0.47,1.74-1.69
		c-0.02-3.23-0.01-6.47-0.01-9.7c0-1.43-0.94-2.12-1.96-2.8c-8-5.37-16-10.74-23.98-16.14c-10.13-6.86-20.36-13.58-30.44-20.51
		c-2.2-1.52-2.21-1.61-1.05-3.95c1.82-3.65,3.31-7.43,3.63-11.54c0.78-10.25-7.51-19.84-17.23-19.31c-4.56,0.25-8.4,2.23-11.71,5.31
		c-2.25,2.1-2.38,2.09-4.62,0.01c-4.21-3.91-9.1-6.05-14.91-5.09c-6.9,1.15-12.57,7.39-13.79,14.52
		c-0.99,5.78,0.91,10.88,3.29,15.91c1.23,2.6,1.28,2.62-1.1,4.23c-13.21,8.98-26.5,17.85-39.75,26.78
		c-4.84,3.26-9.65,6.56-14.53,9.75c-1.43,0.94-2.06,2.05-2,3.77c0.1,2.85,0.06,5.71,0.01,8.56c-0.02,1.39,0.56,1.94,1.93,1.91
		c2.15-0.04,4.31-0.03,6.47-0.01c2.73,0.03,3,0.31,3.03,3.1c0,0.32,0,0.63,0,0.95c0,28.15-0.02,56.3,0.04,84.45
		c0.01,2.39-0.61,3.67-2.99,4.69c-5.42,2.32-8.28,6.67-8.47,12.65c-0.03,0.93,0.17,1.92-0.53,2.73c45.65,0,91.31,0,136.96,0
		c-0.13-1.87,0.81-4.38-0.38-5.44c-1.04-0.92-3.49-0.27-5.32-0.27c-40.88,0-81.75,0-122.63,0c-0.7,0-1.39,0-2.1,0
		c0.47-2.88,3.55-5.36,6.98-5.67c0.5-0.05,1.01-0.04,1.52-0.04c47.02,0,94.05,0,141.07,0c4.39,0,7.25,1.81,8.77,5.7
		c-3.03,0-5.97,0.1-8.89-0.04c-1.59-0.08-2.12,0.36-1.93,1.95c0.15,1.25,0.03,2.53,0.03,3.8c5.71,0,11.41,0,17.12,0
		C185.56,196.25,185.71,195.34,185.69,194.46z M75.88,14.74c3.4-6.89,10.77-8.81,17.06-4.44c2.81,1.95,4.88,4.6,6.83,7.34
		c0.7,0.98,1.03,0.92,1.69-0.01c1.51-2.11,3.08-4.2,5.06-5.91c3.78-3.26,7.98-5.12,12.89-2.85c5,2.31,7.03,6.66,7.4,11.57
		c-0.11,4.01-1.42,7.31-3.04,10.47c-5,9.75-13.22,16.15-22.47,21.48c-0.5,0.29-0.9,0.27-1.39-0.02
		c-10.28-5.94-19.23-13.17-23.88-24.58C74.26,23.44,73.72,19.12,75.88,14.74z M94.66,179.52c-0.92,1.05-3.09,0.34-4.71,0.34
		c-14.9,0.02-29.79-0.01-44.69,0.05c-1.4,0.01-1.93-0.29-1.75-1.74c0.2-1.56-0.65-3.62,0.31-4.57c0.95-0.95,3-0.26,4.56-0.27
		c6.97-0.03,13.95-0.01,20.92-0.01c7.99,0,15.97,0.03,23.96-0.03c1.33-0.01,1.77,0.31,1.65,1.65
		C94.79,176.5,95.46,178.62,94.66,179.52z M89.24,165.88c0,1.44-0.36,1.77-1.78,1.76c-12.17-0.06-24.33-0.06-36.5,0
		c-1.48,0.01-1.75-0.43-1.74-1.8c0.06-9.89,0.03-19.77,0.03-29.66s0.04-19.77-0.04-29.66c-0.01-1.47,0.41-1.74,1.78-1.73
		c12.17,0.06,24.33,0.06,36.5-0.01c1.45-0.01,1.74,0.38,1.74,1.77C89.19,126.33,89.18,146.11,89.24,165.88z M169.13,178.05
		c0,1.44-0.3,1.87-1.82,1.87c-21.62-0.06-43.24-0.05-64.86-0.01c-1.43,0-1.95-0.27-1.87-1.82c0.14-3.04,0-6.09,0.06-9.13
		c0.02-1.05-0.23-1.44-1.35-1.38c-1.38,0.07-3.25,0.48-4.03-0.22c-1.02-0.93-0.34-2.86-0.34-4.35c-0.03-20.67-0.04-41.34,0.02-62.01
		c0.01-1.64-0.45-1.92-1.98-1.92c-15.85,0.06-31.7,0.07-47.55-0.01c-1.64-0.01-1.91,0.47-1.91,1.99
		c0.05,21.43,0.01,42.86,0.08,64.29c0.01,1.76-0.29,2.4-2.21,2.3c-3.53-0.18-3.54-0.05-3.54,3.46c0,2.54-0.04,5.07,0.02,7.61
		c0.02,0.91-0.24,1.14-1.16,1.18c-4.57,0.17-4.57,0.2-4.57-4.4c0-28.59,0.02-57.19-0.04-85.78c0-1.61,0.54-2.46,1.81-3.32
		c7.4-4.99,14.73-10.09,22.12-15.09c1-0.67,1.23-1.16,0.42-2.15c-0.87-1.07-1.59-2.26-2.41-3.45c-7.8,5.36-15.56,10.62-23.23,15.99
		c-1.64,1.15-3.26,1.85-5.25,1.57c-0.37-0.05-0.76-0.01-1.14-0.01c-4.04,0-4.22-0.24-3.71-4.31c0.13-1.06,0.98-1.27,1.6-1.69
		c14.37-9.7,28.77-19.38,43.16-29.06c3.36-2.26,6.74-4.5,10.07-6.8c0.9-0.62,1.44-0.81,2.23,0.25c1.25,1.66,2.74,3.14,4.27,4.85
		c-7.3,5.01-14.48,9.98-21.72,14.86c-1.23,0.83-1.56,1.31-0.56,2.65c2.3,3.08,2.22,3.16,5.44,0.95c6.64-4.54,13.28-9.07,19.87-13.67
		c1.1-0.77,1.82-0.85,2.93,0.03c3.58,2.83,7.52,5.13,11.52,7.32c0.83,0.45,1.41,0.45,2.23,0c3.94-2.16,7.84-4.41,11.36-7.22
		c1.23-0.98,2.01-0.88,3.25-0.02c17.04,11.76,34.11,23.46,51.2,35.13c1.11,0.76,1.58,1.49,1.58,2.87
		C169.08,118.96,169.08,148.5,169.13,178.05z M169.88,81.3c-16.4-11.33-32.85-22.59-49.31-33.83c-1.13-0.77-1.53-1.23-0.27-2.25
		c0.93-0.75,1.67-1.73,2.46-2.64c1.73-1.98,1.72-1.99,4.01-0.45c17.38,11.69,34.75,23.38,52.13,35.07c1.33,0.9,2.25,4.22,1.6,5.68
		c-0.21,0.48-0.59,0.38-0.94,0.38c-1.08,0.01-2.15,0-3.69,0C173.8,83.83,171.88,82.68,169.88,81.3z"/>
	<path class="st0" d="M186.21,193.96c-0.12-6.13-3.97-11.46-9.81-13.29c-1.38-0.43-1.63-1.07-1.62-2.35
		c0.04-18.39,0.03-36.78,0.03-55.17c0-10.84,0.02-21.69-0.03-32.53c-0.01-1.32,0.3-1.72,1.65-1.67c2.85,0.11,5.71-0.01,8.56,0.06
		c1.01,0.02,1.27-0.29,1.25-1.27c-0.06-3.68-0.07-7.36,0.01-11.03c0.02-1.09-0.36-1.68-1.25-2.28
		c-18.61-12.49-37.18-25.03-55.8-37.5c-1.22-0.82-1.52-1.32-0.76-2.73c2.73-5.08,4.63-10.36,3.79-16.34
		c-1.28-9.11-9.14-16.13-17.87-15.61c-5.05,0.3-9.17,2.7-12.66,6.22c-0.88,0.89-1.31,0.88-2.18,0c-3.54-3.57-7.72-5.99-12.85-6.22
		C76.36,1.77,67.7,11.66,68.83,22.41c0.45,4.24,1.92,8.12,3.96,11.78c0.78,1.39,0.53,1.97-0.75,2.74c-2.49,1.51-4.85,3.22-7.27,4.84
		C48.65,52.63,32.54,63.49,16.4,74.31c-1,0.67-1.45,1.32-1.42,2.57c0.1,3.61,0.07,7.23,0.01,10.84c-0.02,0.99,0.25,1.29,1.26,1.27
		c2.92-0.07,5.84,0.04,8.75-0.05c1.21-0.04,1.46,0.33,1.45,1.48c-0.03,29.49-0.03,58.97,0,88.46c0,1.04-0.38,1.38-1.28,1.64
		c-3.23,0.92-5.74,2.87-7.67,5.59c-2.33,3.29-2.66,7.03-2.49,10.89c0.7-0.81,0.5-1.79,0.53-2.73c0.19-5.99,3.06-10.33,8.47-12.65
		c2.38-1.02,2.99-2.3,2.99-4.69c-0.07-28.15-0.04-56.3-0.04-84.45c0-0.32,0-0.63,0-0.95c-0.03-2.79-0.3-3.08-3.03-3.1
		c-2.16-0.02-4.31-0.04-6.47,0.01c-1.37,0.03-1.95-0.52-1.93-1.91c0.04-2.85,0.08-5.71-0.01-8.56c-0.06-1.71,0.57-2.83,2-3.77
		c4.88-3.19,9.69-6.49,14.53-9.75c13.24-8.93,26.54-17.8,39.75-26.78c2.38-1.62,2.33-1.64,1.1-4.23
		c-2.38-5.03-4.27-10.13-3.29-15.91C70.82,10.38,76.5,4.14,83.4,2.99c5.81-0.97,10.7,1.18,14.91,5.09c2.24,2.08,2.37,2.08,4.62-0.01
		c3.31-3.08,7.15-5.06,11.71-5.31c9.72-0.53,18.01,9.06,17.23,19.31c-0.31,4.11-1.81,7.89-3.63,11.54
		c-1.16,2.34-1.15,2.43,1.05,3.95c10.08,6.94,20.31,13.65,30.44,20.51c7.98,5.4,15.98,10.77,23.98,16.14
		c1.02,0.69,1.96,1.37,1.96,2.8c0,3.23-0.01,6.47,0.01,9.7c0.01,1.22-0.56,1.7-1.74,1.69c-2.09-0.02-4.18-0.01-6.28,0
		c-3.16,0.01-3.39,0.22-3.39,3.31c-0.01,28.66,0.01,57.32-0.04,85.98c0,1.94,0.65,2.91,2.48,3.66c5.78,2.38,8.79,6.81,8.97,13.1
		c0.02,0.88-0.13,1.79,0.53,2.54C186.21,195.99,186.23,194.97,186.21,193.96z"/>
	<path class="st0" d="M162.84,193.53c0.01-1.74-1.11-1.68-2.31-1.68c-1.19,0-2.32-0.06-2.31,1.68c0.01,1.17,0.3,2.42-0.55,3.47
		c1.9,0,3.8,0,5.71,0C162.55,195.95,162.84,194.7,162.84,193.53z"/>
	<path class="st0" d="M160.73,191.29c-3.04,0-3.04,0-3.04,3.05c0,0.89,0,1.77,0,2.66c0.84-1.05,0.55-2.3,0.55-3.47
		c-0.01-1.74,1.11-1.68,2.31-1.68c1.19,0,2.32-0.06,2.31,1.68c-0.01,1.17-0.3,2.42,0.55,3.47c0-1.01,0-2.03,0-3.04
		C163.39,191.29,163.39,191.29,160.73,191.29z"/>
	<path class="st0" d="M156.15,99.09c-8.05,0.06-16.1,0.03-24.14,0.03c-8.05,0-16.1,0.03-24.14-0.03c-1.21-0.01-1.58,0.27-1.58,1.54
		c0.05,12.29,0.05,24.59,0,36.88c0,1.23,0.29,1.59,1.56,1.59c16.1-0.04,32.19-0.04,48.29,0c1.24,0,1.58-0.32,1.57-1.57
		c-0.05-12.29-0.05-24.59,0-36.88C157.72,99.4,157.39,99.08,156.15,99.09z M127.93,133.38c-2.47-0.04-4.93-0.01-7.4-0.01
		c-2.4,0-4.81-0.04-7.21,0.02c-0.97,0.03-1.33-0.22-1.31-1.25c0.06-3.04,0.05-6.07,0.01-9.11c-0.01-0.8,0.19-1.1,1.05-1.09
		c5,0.04,10,0.03,15,0c0.77,0,1.13,0.14,1.11,1.02c-0.05,3.1-0.05,6.2,0,9.3C129.19,133.24,128.77,133.39,127.93,133.38z
		 M129.17,114.84c0.02,1.01-0.17,1.44-1.33,1.43c-4.81-0.06-9.62-0.05-14.43-0.01c-1.03,0.01-1.45-0.2-1.42-1.34
		c0.08-2.91,0.1-5.82-0.01-8.73c-0.05-1.29,0.47-1.42,1.53-1.39c2.4,0.07,4.81,0.02,7.21,0.02c2.34,0,4.68,0.05,7.02-0.02
		c1.01-0.03,1.45,0.14,1.42,1.3C129.09,109.02,129.11,111.93,129.17,114.84z M150.64,133.38c-2.47-0.04-4.93-0.01-7.4-0.01
		c-2.4,0-4.81-0.04-7.21,0.02c-0.91,0.02-1.2-0.26-1.19-1.18c0.05-3.04,0.05-6.07,0-9.11c-0.02-0.92,0.26-1.17,1.17-1.16
		c4.93,0.04,9.87,0.04,14.81,0c0.89-0.01,1.21,0.19,1.19,1.14c-0.06,3.04-0.07,6.08,0,9.11C152.03,133.3,151.53,133.4,150.64,133.38
		z M150.56,116.26c-2.4-0.06-4.81-0.02-7.21-0.02c-2.4,0-4.81-0.04-7.21,0.02c-0.98,0.03-1.32-0.24-1.3-1.26
		c0.06-3.04,0.05-6.07,0.01-9.11c-0.01-0.81,0.21-1.09,1.05-1.08c5,0.04,10,0.05,14.99-0.01c1-0.01,1.11,0.4,1.1,1.23
		c-0.04,2.97-0.07,5.95,0.01,8.92C152.03,116.13,151.54,116.28,150.56,116.26z"/>
	<path class="st0" d="M138.06,80.18c1.56,1.19,2.46,1.14,3.33-0.65c0.46-0.94,1.17-1.77,1.86-2.78c-0.97-0.66-1.99-1.2-2.8-1.95
		c-1.42-1.31-2.23-1.05-3.23,0.57C135.41,78.31,135.39,78.14,138.06,80.18z"/>
	<path class="st0" d="M128.34,73.45c0.72,0.49,1.45,0.95,2.21,1.38c0.15,0.09,3.14-4.15,3.12-4.49c-0.53-0.72-1.41-1.1-2.17-1.63
		c-2.36-1.64-2.37-1.63-3.94,0.68C125.92,71.78,125.92,71.79,128.34,73.45z"/>
	<path class="st0" d="M57.97,133.36c-3.02,0-3.02,0-3.02,2.11c0,3.6,0,3.6,2.13,3.6c3.58,0,3.58,0,3.58-2.33
		C60.67,133.36,60.67,133.36,57.97,133.36z"/>
	<path class="st0" d="M114.96,20.34c3.49,0,3.49,0,3.5-2.29c0-3.43,0-3.43-2.91-3.43c-2.8,0-2.8,0-2.8,2.16
		C112.74,20.34,112.74,20.34,114.96,20.34z"/>
</g>
</svg>
