<?xml version="1.0" encoding="utf-8"?>
<!-- Generator: Adobe Illustrator 24.0.2, SVG Export Plug-In . SVG Version: 6.00 Build 0)  -->
<svg version="1.1" id="Capa_1" xmlns="http://www.w3.org/2000/svg" xmlns:xlink="http://www.w3.org/1999/xlink" x="0px" y="0px"
	 viewBox="0 0 200 200" style="enable-background:new 0 0 200 200;" xml:space="preserve">
<style type="text/css">
	.st0{fill:#FFFFFF;}
</style>
<g>
	<path class="st0" d="M-153.12,47.43c-10.33-0.01-20.66-0.05-30.99,0.04c-1.69,0.01-2.07-0.39-2.07-2.07
		c0.06-28.75,0.04-57.49,0.04-86.24c0-3.15-0.98-4.14-4.12-4.14c-34.2,0-68.39,0.01-102.59-0.03c-1.67,0-2.91,0.52-4.07,1.7
		c-11.72,11.78-23.47,23.53-35.25,35.25c-1.28,1.27-1.83,2.6-1.83,4.41c0.05,24.19,0.03,48.38,0.03,72.57s0,48.38,0,72.57
		c0,3.65,0.85,4.5,4.54,4.5c30.16,0,60.31,0,90.47,0c16.3,0,32.59,0,48.89,0c2.89,0,3.93-1.05,3.94-3.94
		c0.01-2.25,0.09-4.5-0.03-6.74c-0.07-1.35,0.3-1.69,1.67-1.68c10.46,0.06,20.92,0.04,31.37,0.03c6.28,0,10.11-3.79,10.11-10.01
		c0.01-22.07,0.01-44.14,0-66.22C-143.02,51.21-146.83,47.44-153.12,47.43z M-297.01-34.02c0,1.93,0,3.88,0,5.84
		c0,6.21-0.02,12.43,0.02,18.64c0.01,1.04-0.06,1.57-1.38,1.56c-8.2-0.07-16.39-0.04-24.64-0.04
		C-314.32-16.71-305.7-25.33-297.01-34.02z M-192.25,135.6c-0.12,4.23-0.04,4.24-4.28,4.24c-43.05,0-86.11-0.01-129.16,0.04
		c-1.74,0-2.17-0.41-2.16-2.16c0.06-22.91,0.04-45.82,0.04-68.72c0-22.97,0.02-45.94-0.04-68.92c0-1.59,0.35-1.99,1.96-1.97
		c10.27,0.08,20.53,0.04,30.8,0.04c3.28,0,4.24-0.95,4.24-4.22c0-10.33,0.03-20.66-0.03-30.99c-0.01-1.41,0.3-1.79,1.76-1.78
		c31.7,0.05,63.39,0.05,95.09,0c1.41,0,1.79,0.29,1.78,1.76c-0.05,27.59-0.05,55.18,0,82.78c0,1.41-0.3,1.79-1.76,1.78
		c-20.6-0.06-41.19-0.04-61.79-0.04c-6.77,0-10.41,3.67-10.41,10.48c0,21.82,0,43.63,0,65.45c0,6.64,3.7,10.31,10.39,10.31
		c20.53,0,41.06,0.02,61.6-0.04C-192.63,133.63-192.2,133.99-192.25,135.6z M-149.17,123.39c0,3.14-0.99,4.13-4.13,4.13
		c-34.18,0-68.36,0-102.54,0c-3.25,0-4.2-0.96-4.2-4.25c0-12.38,0.03-24.76-0.04-37.13c-0.01-1.43,0.32-1.78,1.77-1.78
		c17.96,0.06,35.91,0.04,53.87,0.04c17.83,0,35.65,0.02,53.48-0.04c1.56-0.01,1.84,0.46,1.83,1.9
		C-149.2,98.63-149.17,111.01-149.17,123.39z M-149.13,67.84c-0.15,2.88-0.13,5.78,0,8.66c0.07,1.45-0.34,1.77-1.78,1.77
		c-25.79-0.05-51.58-0.04-77.38-0.04c-10.01,0-20.02-0.03-30.03,0.04c-1.44,0.01-1.84-0.32-1.77-1.77c0.13-2.95,0.13-5.91,0-8.85
		c-0.06-1.45,0.34-1.77,1.78-1.77c17.96,0.05,35.93,0.04,53.89,0.04c17.77,0,35.54,0.02,53.32-0.04
		C-149.5,65.87-149.05,66.23-149.13,67.84z M-149.15,59.02c-0.09,0.58-0.28,0.77-0.82,0.74c-0.45-0.02-0.9,0-1.35,0
		c-17.76,0-35.52,0-53.28,0c-17.82,0-35.65-0.02-53.47,0.03c-1.51,0-2.1-0.21-2.02-1.91c0.16-3.36,0.98-4.28,4.41-4.28
		c33.98,0,67.96,0,101.95,0C-149.92,53.59-148.54,55.25-149.15,59.02z"/>
	<path class="st0" d="M-235.45,41.27c20.35,0.02,36.97-16.54,37-36.87c0.04-20.36-16.49-36.99-36.82-37.05
		c-20.45-0.06-37.1,16.54-37.1,36.97C-272.37,24.66-255.79,41.25-235.45,41.27z M-235.33-26.49c16.97,0.03,30.76,13.91,30.71,30.93
		c-0.05,16.96-13.97,30.74-30.98,30.67c-16.88-0.07-30.63-13.92-30.61-30.84C-266.19-12.72-252.34-26.52-235.33-26.49z"/>
	<path class="st0" d="M-307.59,28.99c10.2-0.07,20.4-0.04,30.6-0.04c4.68,0,4.63,0,4.66-4.62c0.01-1.26-0.33-1.58-1.58-1.57
		c-5.64,0.07-11.29,0.03-16.94,0.03c-4.68,0-9.37,0-14.05,0c-4.45,0-4.38,0-4.47,4.43C-309.4,28.67-309.02,29-307.59,28.99z"/>
	<path class="st0" d="M-319.94,41.31c10.26-0.08,20.53-0.04,30.79-0.04c4.48,0,4.42,0,4.5-4.4c0.02-1.38-0.24-1.83-1.74-1.81
		c-5.58,0.11-11.16,0.04-16.74,0.04c-4.68,0-9.37,0-14.05,0c-4.48,0-4.42,0-4.5,4.4C-321.71,40.89-321.44,41.32-319.94,41.31z"/>
	<path class="st0" d="M-274.15,115.17c-10.2,0.06-20.4,0.03-30.6,0.03c-4.65,0-4.59,0-4.62,4.66c-0.01,1.34,0.45,1.54,1.62,1.53
		c5.58-0.06,11.16-0.02,16.74-0.02c4.75,0,9.49,0,14.24,0c4.42,0,4.33,0,4.44-4.47C-272.29,115.36-272.8,115.16-274.15,115.17z"/>
	<path class="st0" d="M-286.24,127.49c-5.64,0.07-11.29,0.03-16.94,0.03c-4.68,0-9.37,0-14.05,0c-4.45,0-4.38,0-4.47,4.43
		c-0.03,1.45,0.35,1.78,1.78,1.77c10.2-0.07,20.4-0.04,30.6-0.04c4.68,0,4.63,0,4.65-4.62
		C-284.65,127.79-284.99,127.47-286.24,127.49z"/>
	<path class="st0" d="M-318.5,28.95c3.01,0,3.01,0,3.01-2.95c0-3.21,0-3.21-3.15-3.21c-3.01,0-3.01,0-3.01,2.95
		C-321.65,28.95-321.65,28.95-318.5,28.95z"/>
	<path class="st0" d="M-278.53,38.32c0,2.95,0,2.95,3.01,2.95c3.15,0,3.15,0,3.15-3.21c0-2.95,0-2.95-3.01-2.95
		C-278.53,35.11-278.53,35.11-278.53,38.32z"/>
	<path class="st0" d="M-321.65,118.5c0,2.86,0,2.86,2.92,2.86c3.24,0,3.24,0,3.24-3.3c0-2.86,0-2.86-2.92-2.86
		C-321.65,115.2-321.65,115.2-321.65,118.5z"/>
	<path class="st0" d="M-275.2,127.52c-3.33,0-3.33,0-3.33,3.41c0,2.75,0,2.75,2.83,2.75c3.33,0,3.33,0,3.33-3.22
		C-272.37,127.52-272.37,127.52-275.2,127.52z"/>
	<path class="st0" d="M-170.34,97.08c-1.27,0.28-2.42,0.35-3.72,0.04c-5.04-1.19-9.29,0.33-12.48,4.35
		c-3.15,3.97-3.61,8.47-1.37,12.99c2.28,4.58,6.2,7.07,11.32,6.8c2.97-0.16,5.9-0.78,8.37,0.15c5.5-0.25,9.38-2.44,11.59-6.99
		c2.21-4.54,1.74-9.02-1.41-12.99C-161.17,97.47-165.36,95.99-170.34,97.08z M-183.04,108.7c0.14-2.6,1.78-4.63,4.51-5.4
		c-0.84,1.88-1.44,3.71-1.45,5.69c0,2,0.58,3.84,1.5,5.9C-181.63,113.71-183.19,111.49-183.04,108.7z M-172.34,112.58
		c-1.02,0.07-1.46-2.13-1.45-3.56c0.01-1.42,0.36-3.54,1.48-3.54c1.29,0,1.36,2.11,1.62,3.42
		C-170.9,110.38-170.92,112.49-172.34,112.58z M-166.07,114.82c1.95-3.91,1.95-7.63,0.1-11.35c2.27,0.24,4.12,2.31,4.45,4.88
		C-161.18,111.03-163.13,114.31-166.07,114.82z"/>
	<path class="st0" d="M-220.28,102.88c-2.79,0.52-2.79,0.52-2.82,3.28c-0.09,6.92-5.96,12.41-12.95,12.1
		c-6.86-0.3-12.22-6.46-11.64-13.38c0.57-6.79,6.83-11.9,13.61-11.22c1.27,0.13,2.65,1.44,3.71,0.44c0.9-0.85,1.16-2.37,1.71-3.6
		c0.05-0.12,0.09-0.24,0.16-0.35c0.62-0.91,0.24-1.27-0.7-1.59c-3.1-1.05-6.22-1.34-9.45-0.77c-9.46,1.68-16.28,10.67-15.16,20.06
		c1.19,9.94,9.59,17.06,19.52,16.55c9.59-0.49,17.33-8.69,17.36-18.39C-216.93,102.26-216.93,102.26-220.28,102.88z"/>
	<path class="st0" d="M-236.47,104.97c-2.73-4.04-2.7-4.02-6.74-1.04c-0.78,0.58-0.77,0.94-0.28,1.65c1.67,2.42,3.27,4.89,4.91,7.33
		c2.04,3.04,4.16,3.08,6.28,0.12c4.1-5.72,8.18-11.46,12.27-17.19c2.52-3.53,2.47-3.47-0.99-6.07c-1.25-0.94-1.79-0.7-2.61,0.48
		c-3.8,5.45-7.7,10.83-11.56,16.22C-235.91,106.14-236.12,105.49-236.47,104.97z"/>
	<path class="st0" d="M-233.89,19.5c-2.82,0.78-6.39-0.64-7.03-3.5c-0.61-2.73-2.11-2.59-4.03-2.46c-0.45,0.03-0.91,0.07-1.34-0.01
		c-1.45-0.25-1.56,0.52-1.36,1.64c0.84,4.73,3.46,8.06,7.93,9.82c0.95,0.37,1.36,0.76,1.25,1.76c-0.07,0.63-0.01,1.28-0.01,1.92
		c0,0.71,0.07,1.42-0.02,2.11c-0.13,1.05,0.33,1.24,1.29,1.26c4.88,0.1,4.88,0.13,4.89-4.76c0-0.06,0.01-0.13,0-0.19
		c-0.21-1.19,0.27-1.73,1.45-2.19c6.56-2.56,9.61-10,6.69-16.33c-2.22-4.83-6.14-7.17-11.43-7.37c-3.14-0.12-5.64-2.52-5.93-5.52
		c-0.3-3.04,1.68-5.83,4.7-6.62c2.8-0.73,6.29,0.78,7.01,3.62c0.59,2.33,1.75,2.64,3.68,2.38c0.57-0.08,1.17-0.09,1.73,0
		c1.38,0.23,1.44-0.52,1.27-1.55c-0.55-3.37-2.15-6.08-4.8-8.27c-1.34-1.1-3.64-1.04-4.23-2.59c-0.58-1.51-0.14-3.42-0.13-5.15
		c0.01-0.58-0.07-0.87-0.79-0.97c-4.93-0.69-5.37-0.35-5.37,4.48c0,0.13-0.02,0.26,0,0.38c0.23,1.28-0.3,1.83-1.54,2.33
		c-4.45,1.82-7.1,5.24-7.61,10.02c-0.51,4.77,1.36,8.65,5.29,11.45c2.15,1.53,4.6,2.11,7.23,2.21c3.11,0.11,5.6,2.58,5.85,5.6
		C-229.02,15.99-230.95,18.7-233.89,19.5z"/>
</g>
<g>
	<path class="st0" d="M48.45,5.08c0.78,0,1.56,0,2.34,0C50.01,4.99,49.22,4.99,48.45,5.08z"/>
	<path class="st0" d="M195.33,144.91c2.78-20.08-3.17-37.38-17.33-51.85c-0.85-0.86-1.03-1.7-1.03-2.79
		c0.02-19.52,0.02-39.03,0.01-58.55c-0.01-8.3-4.96-14.63-12.72-16.36c-1.53-0.34-3.09-0.31-4.64-0.31
		c-5.35-0.01-10.69-0.02-16.04,0.01c-1.03,0.01-1.57-0.06-1.78-1.38c-0.81-4.99-4.74-8.25-9.55-8.2c-4.79,0.05-8.58,3.43-9.29,8.47
		c-0.18,1.29-0.88,1.09-1.66,1.09c-6.28,0-12.56,0-18.84,0c-13.87,0-27.73-0.01-41.6,0.02c-1.15,0-1.65-0.13-1.86-1.5
		c-0.72-4.79-4.73-8.11-9.46-8.09c-4.71,0.02-8.7,3.44-9.36,8.21c-0.16,1.15-0.5,1.4-1.58,1.39c-5.53-0.05-11.07-0.03-16.6-0.02
		c-8.74,0.02-14.28,4.27-16.65,12.77c-0.04,0.15-0.21,0.27-0.32,0.4c0,44.26,0,88.52,0,132.78c0.12,0.19,0.3,0.37,0.36,0.58
		c2.26,8.15,7.98,12.53,16.46,12.54c20.93,0.01,41.87,0.06,62.8-0.06c2.84-0.02,4.69,0.77,6.63,2.91
		c9.91,10.86,22.33,17.06,36.87,19.06c0.39,0.05,0.9-0.16,1.12,0.4c3.98,0,7.96,0,11.94,0c2.51-0.48,5.04-0.9,7.54-1.45
		C173.13,189.64,191.93,169.55,195.33,144.91z M129.24,15.16c0.04-1.94,1.3-3.26,3.05-3.31c1.79-0.06,3.25,1.32,3.27,3.31
		c0.06,4.15,0.06,8.31,0,12.46c-0.03,2.03-1.42,3.32-3.27,3.27c-1.81-0.05-3-1.28-3.05-3.27c-0.05-2.11-0.01-4.22-0.01-6.32
		C129.23,19.25,129.19,17.2,129.24,15.16z M122.83,24.53c0.15,8.45,3.2,12.58,9.24,12.73c6.28,0.16,9.29-3.65,9.97-12.59
		c4.06,3.2,3.99,10.13-0.15,14.73c-4.97,5.53-13.62,5.68-18.73,0.33C118.77,35.13,118.54,28.17,122.83,24.53z M46.44,15.32
		c0.02-2.05,1.29-3.43,3.09-3.48c1.86-0.05,3.21,1.39,3.25,3.52c0.04,2.05,0.01,4.09,0.01,6.14c0,1.98,0.03,3.97-0.01,5.95
		c-0.04,2.09-1.25,3.4-3.1,3.44c-1.95,0.04-3.22-1.28-3.23-3.48C46.4,23.38,46.4,19.35,46.44,15.32z M40.11,24.47
		c-0.29,4.02,0,7.74,3.22,10.48c1.92,1.64,4.14,2.41,6.68,2.31c5.96-0.22,8.83-4.13,9.19-12.8c4.39,4.34,3.98,11.42-0.74,15.88
		c-5.09,4.81-13.69,4.47-18.44-0.72C35.84,35.04,35.94,28.08,40.11,24.47z M11.38,31.6c0.01-6.18,3.94-10.14,10.11-10.17
		c3.98-0.02,7.96,0.01,11.94,0.03c0.09,0,0.18,0.11,0.27,0.18c-4.96,10.33-3.55,18.73,4.12,24.56c7.19,5.46,17.75,5.12,24.47-0.75
		c5.47-4.78,9.44-14.07,3.07-23.86c17.11,0,34.12,0,51.15,0c-4.91,10.16-3.56,18.39,3.96,24.3c7.03,5.52,16.97,5.53,23.8,0.01
		c7.62-6.15,8.95-14.3,3.94-24.33c4.91,0,9.82-0.31,14.66,0.09c4.42,0.37,7.67,4.62,7.72,9.37c0.08,8.02,0,16.04,0.05,24.06
		c0.01,1.1-0.37,1.46-1.39,1.34c-0.31-0.04-0.62-0.01-0.93-0.01c-51.55,0-103.1-0.01-154.65,0.04c-1.83,0-2.38-0.35-2.34-2.29
		C11.46,46.65,11.37,39.12,11.38,31.6z M82.14,167.76c-20.02,0-40.04-0.13-60.05,0.07c-6.49,0.06-10.8-4.63-10.77-10.78
		c0.14-30.76,0.08-61.52,0.03-92.28c0-1.61,0.34-2.03,2-2.03c51.72,0.05,103.45,0.05,155.17,0c1.67,0,2.17,0.37,2.15,2.11
		c-0.11,7.14-0.05,14.28-0.05,21.76c-18.01-11.97-37.04-14.27-57.37-6.93c0-1.5,0.03-2.91-0.01-4.31c-0.1-3.5-2.63-6.13-6.14-6.19
		c-4.41-0.08-8.83-0.09-13.24,0.01c-3.4,0.07-5.94,2.71-6.02,6.11c-0.06,2.79-0.02,5.59-0.02,8.39c0,4.96,1.7,7,6.41,7.79
		c-21.5,23-24.95,48.32-10.42,76.27C83.33,167.76,82.74,167.76,82.14,167.76z M94.17,76.66c-0.02-0.88,0.22-1.19,1.13-1.15
		c1.8,0.07,3.6,0.02,5.4,0.02c1.49,0,2.99,0.12,4.46-0.03c1.56-0.16,1.92,0.48,1.75,1.85c-0.08,0.67,0.05,1.37-0.03,2.04
		c-0.14,1.19,0.63,2.74-0.43,3.51c-1.54,1.12-3.11,2.41-5.35,2.16c-1.9-0.21-3.84-0.08-5.76-0.03c-0.86,0.03-1.2-0.17-1.18-1.12
		C94.23,81.5,94.22,79.08,94.17,76.66z M135.38,190.08c-29.83-0.11-53.95-24.34-53.92-54.15c0.03-29.95,24.24-54.1,54.16-54.04
		c29.94,0.06,54.15,24.32,54.07,54.18C189.62,165.91,165.19,190.19,135.38,190.08z"/>
	<path class="st0" d="M36.92,132.79c-4.28-0.12-8.57-0.12-12.86,0c-3.56,0.09-6.17,2.65-6.29,6.09c-0.12,3.35-0.11,6.71,0,10.06
		c0.12,3.46,2.82,6.02,6.28,6.1c2.11,0.05,4.22,0.01,6.34,0.01c2.05,0,4.1,0.02,6.15,0c3.95-0.04,6.56-2.54,6.65-6.46
		c0.07-3.1,0.07-6.21,0-9.31C43.11,135.52,40.65,132.9,36.92,132.79z M35.78,148.71c-1.8-0.05-3.59-0.02-5.39-0.02
		c-1.67,0-3.35-0.04-5.02,0.02c-0.89,0.03-1.34-0.12-1.3-1.19c0.08-2.41,0.06-4.83,0.01-7.24c-0.02-0.89,0.28-1.18,1.17-1.17
		c3.47,0.04,6.94,0.04,10.41,0c0.87-0.01,1.21,0.23,1.19,1.15c-0.05,2.48-0.05,4.95,0,7.43C36.87,148.52,36.57,148.73,35.78,148.71z
		"/>
	<path class="st0" d="M36.91,100.97c-2.11-0.05-4.22-0.01-6.34-0.01s-4.22-0.03-6.34,0.01c-3.75,0.06-6.42,2.71-6.49,6.49
		c-0.05,3.1-0.06,6.21,0,9.31c0.07,3.68,2.63,6.37,6.32,6.47c4.28,0.11,8.57,0.11,12.86,0c3.64-0.1,6.16-2.68,6.25-6.31
		c0.08-3.29,0.09-6.58-0.02-9.87C43.04,103.55,40.42,101.06,36.91,100.97z M35.65,116.92c-3.47-0.04-6.94-0.04-10.41,0
		c-0.9,0.01-1.18-0.3-1.16-1.18c0.05-2.42,0.07-4.83-0.01-7.25c-0.03-1.05,0.39-1.23,1.3-1.2c1.73,0.06,3.47,0.02,5.21,0.02
		c1.74,0,3.47,0.04,5.21-0.02c0.8-0.02,1.07,0.23,1.06,1.05c-0.04,2.48-0.05,4.96,0,7.43C36.87,116.69,36.52,116.93,35.65,116.92z"
		/>
	<path class="st0" d="M23.73,91.32c4.53,0.12,9.07,0.12,13.6-0.01c3.25-0.09,5.71-2.6,5.82-5.87c0.12-3.41,0.12-6.83,0.01-10.24
		c-0.11-3.45-2.64-5.9-6.09-6.02c-2.17-0.07-4.35-0.01-6.52-0.02s-4.35-0.05-6.52,0.01c-3.51,0.1-6.14,2.61-6.25,6.1
		c-0.11,3.35-0.11,6.71,0.01,10.05C17.9,88.67,20.42,91.24,23.73,91.32z M25.19,75.52c1.8,0.03,3.6,0.01,5.39,0.01
		c1.74,0,3.47,0.04,5.21-0.02c0.81-0.02,1.07,0.24,1.05,1.05c-0.05,2.48-0.05,4.96,0,7.44c0.02,0.85-0.31,1.03-1.08,1.03
		c-3.53-0.03-7.07-0.03-10.6,0c-0.78,0.01-1.09-0.22-1.08-1.05c0.04-2.48,0.05-4.96,0-7.44C24.06,75.67,24.44,75.5,25.19,75.52z"/>
	<path class="st0" d="M58.95,91.35c2.17,0.09,4.35,0.02,6.52,0.01c2.24,0,4.47,0.08,6.71-0.02c3.44-0.15,5.94-2.68,6.01-6.1
		c0.08-3.29,0.07-6.58,0-9.87c-0.07-3.53-2.6-6.11-6.13-6.18c-4.35-0.08-8.69-0.08-13.04,0c-3.59,0.06-6.17,2.7-6.23,6.29
		c-0.05,3.16-0.05,6.33,0,9.5C52.85,88.59,55.36,91.21,58.95,91.35z M60.32,75.51c3.48,0.03,6.95,0.05,10.43-0.01
		c0.92-0.01,1.15,0.3,1.13,1.17c-0.05,2.42-0.06,4.84,0,7.26c0.03,0.97-0.37,1.12-1.2,1.1c-1.74-0.05-3.48-0.02-5.21-0.02
		c-1.74,0-3.48-0.05-5.21,0.02c-0.92,0.03-1.15-0.29-1.13-1.17c0.05-2.42,0.07-4.84,0-7.26C59.09,75.63,59.5,75.5,60.32,75.51z"/>
	<path class="st0" d="M71.43,100.96c-2.05-0.03-4.1-0.01-6.15,0c-1.99,0-3.97-0.02-5.96,0.01c-3.86,0.06-6.5,2.71-6.53,6.6
		c-0.03,3.04-0.03,6.08,0,9.12c0.04,3.56,2.36,6.22,5.86,6.51c2.28,0.19,4.59,0.13,6.89,0.03c1.9-0.08,3.21-1.54,3.16-3.24
		c-0.04-1.73-1.37-3-3.31-3.06c-1.67-0.05-3.36-0.07-5.03,0c-1,0.04-1.27-0.32-1.24-1.27c0.06-2.3,0.11-4.6-0.01-6.89
		c-0.07-1.33,0.47-1.49,1.59-1.47c3.6,0.06,7.2,0.04,10.8,0.01c2.14-0.02,3.61-1.37,3.59-3.2C75.06,102.27,73.6,100.99,71.43,100.96
		z"/>
	<path class="st0" d="M68.28,148.7c-2.67-0.03-5.34-0.04-8.01,0.01c-0.88,0.02-1.18-0.22-1.16-1.13c0.06-2.42,0.07-4.84,0-7.26
		c-0.03-1.03,0.37-1.26,1.3-1.22c1.61,0.06,3.23,0.05,4.84,0c2.07-0.06,3.43-1.33,3.45-3.12c0.02-1.78-1.35-3.14-3.4-3.21
		c-2.11-0.07-4.22-0.11-6.33,0.01c-3.7,0.21-6.14,2.85-6.19,6.57c-0.02,1.49,0,2.98,0,4.47c0,1.61-0.03,3.23,0.01,4.84
		c0.08,3.65,2.73,6.31,6.37,6.37c3.04,0.05,6.08,0.03,9.12,0.01c2.22-0.02,3.56-1.24,3.56-3.17
		C71.85,149.96,70.49,148.73,68.28,148.7z"/>
	<path class="st0" d="M135.59,88.25c-26.37-0.05-47.75,21.31-47.76,47.71c-0.01,26.36,21.42,47.79,47.76,47.76
		c26.26-0.02,47.69-21.4,47.75-47.63C183.4,109.85,161.89,88.3,135.59,88.25z M173.44,152.56c-0.48,1.15-0.96,1.21-1.86,0.54
		c-0.49-0.37-1.05-0.68-1.62-0.92c-1.65-0.68-3.36-0.07-4.14,1.45c-0.76,1.47-0.34,3.05,1.09,4.09c0.05,0.04,0.1,0.07,0.16,0.1
		c2.61,1.77,2.6,1.76,0.51,4.31c-2.22,2.71-4.76,5.06-7.54,7.18c-0.81,0.62-1.3,0.78-1.75-0.33c-0.25-0.62-0.62-1.23-1.04-1.75
		c-1.04-1.3-2.35-1.79-3.94-1.04c-1.5,0.71-2.14,2.28-1.63,3.92c0.06,0.18,0.16,0.33,0.23,0.51c0.37,0.89,1.53,1.76,1.17,2.55
		c-0.39,0.87-1.77,0.98-2.74,1.38c-3.12,1.27-6.39,1.94-9.71,2.49c-1.57,0.26-2.17-0.23-1.92-1.81c0.07-0.42,0.02-0.87-0.03-1.3
		c-0.18-1.67-1.29-2.78-2.87-2.88c-1.68-0.11-2.98,0.88-3.36,2.57c-0.04,0.18-0.04,0.37-0.09,0.55c-0.25,0.96,0.6,2.33-0.47,2.83
		c-0.76,0.36-1.93-0.11-2.91-0.26c-3.46-0.5-6.75-1.54-9.97-2.9c-0.97-0.41-1.45-0.77-0.63-1.77c0.38-0.47,0.65-1.06,0.9-1.62
		c0.75-1.66,0.22-3.34-1.28-4.18c-1.44-0.8-3.05-0.43-4.13,0.95c-0.04,0.05-0.07,0.1-0.11,0.15c-0.64,0.8-0.8,2.42-1.74,2.39
		c-0.92-0.04-1.83-1.14-2.69-1.84c-2.7-2.22-5.06-4.76-7.17-7.55c-0.59-0.78-0.6-1.23,0.35-1.63c0.56-0.24,1.09-0.59,1.6-0.95
		c1.51-1.06,1.96-2.74,1.15-4.23c-0.79-1.45-2.57-1.99-4.2-1.31c-0.95,0.39-1.95,1.69-2.7,1.17c-0.83-0.57-1.11-1.99-1.52-3.08
		c-1.2-3.21-2-6.51-2.35-9.93c-0.1-0.99,0.11-1.39,1.14-1.28c0.61,0.06,1.24,0.03,1.86-0.02c1.77-0.15,2.95-1.29,3.06-2.92
		c0.11-1.67-1.04-3.05-2.83-3.36c-0.12-0.02-0.25-0.03-0.37-0.04c-3.15-0.32-3.12-0.31-2.55-3.59c0.6-3.44,1.6-6.74,2.98-9.95
		c0.4-0.94,0.78-1.08,1.59-0.51c0.55,0.39,1.16,0.72,1.78,0.99c1.58,0.7,3.21,0.2,4.06-1.19c0.86-1.41,0.55-3.07-0.78-4.16
		c-0.14-0.12-0.3-0.21-0.46-0.32c-2.47-1.64-2.48-1.65-0.64-3.94c2.27-2.82,4.89-5.28,7.77-7.48c0.85-0.64,1.33-0.65,1.78,0.37
		c0.3,0.67,0.7,1.33,1.16,1.9c1.01,1.24,2.69,1.5,4.03,0.7c1.32-0.78,1.88-2.4,1.33-3.88c-0.06-0.17-0.15-0.34-0.23-0.51
		c-1.3-2.67-1.3-2.67,1.56-3.79c3.25-1.27,6.61-2.08,10.08-2.51c1.2-0.15,1.7,0.04,1.57,1.35c-0.08,0.79-0.01,1.63,0.2,2.39
		c0.43,1.58,1.6,2.38,3.2,2.26c1.59-0.12,2.62-1.03,2.88-2.67c0.04-0.24,0.05-0.49,0.06-0.74c0.14-2.87,0.14-2.89,2.95-2.44
		c3.63,0.58,7.13,1.61,10.52,3.03c0.96,0.4,1.26,0.84,0.58,1.75c-0.37,0.49-0.68,1.05-0.93,1.61c-0.73,1.62-0.17,3.41,1.26,4.21
		c1.52,0.85,3.12,0.42,4.25-1.08c0.62-0.82,0.81-2.42,1.74-2.39c0.92,0.03,1.85,1.11,2.71,1.82c2.65,2.18,4.98,4.66,7.07,7.4
		c0.68,0.89,0.82,1.41-0.36,1.89c-0.62,0.25-1.21,0.63-1.75,1.05c-1.36,1.05-1.68,2.74-0.84,4.15c0.82,1.38,2.51,1.92,4.06,1.22
		c0.96-0.43,1.85-1,2.86-1.55c2.12,4.28,3.35,8.79,3.85,13.52c0.09,0.8-0.1,1.13-0.96,1.08c-0.86-0.04-1.76-0.06-2.59,0.13
		c-1.66,0.38-2.53,1.49-2.48,3.23c0.05,1.6,1.15,2.66,2.79,2.97c1.08,0.21,2.62-0.65,3.16,0.58c0.38,0.88-0.12,2.18-0.3,3.28
		C175.75,146.28,174.73,149.45,173.44,152.56z"/>
	<path class="st0" d="M142.4,138.28c-3.06-3.04-3.06-3.03-1.35-7.02c2.27-5.28,4.56-10.56,6.79-15.86c1.06-2.51-0.28-4.8-2.73-4.81
		c-1.66,0.01-2.56,0.97-3.17,2.4c-3,7.06-6,14.12-9.07,21.15c-0.78,1.79-0.49,3.18,0.87,4.52c3.93,3.88,7.81,7.81,11.73,11.71
		c1.75,1.74,3.67,1.9,5.05,0.48c1.33-1.38,1.18-3.23-0.49-4.92C147.51,143.36,144.95,140.82,142.4,138.28z"/>
</g>
</svg>
